<mxfile host="app.diagrams.net" modified="2024-03-14T01:18:36.229Z" agent="Mozilla/5.0 (Windows NT 10.0; Win64; x64) AppleWebKit/537.36 (KHTML, like Gecko) Chrome/122.0.0.0 Safari/537.36" etag="MbADRLCv0XCOIzH8zQJZ" version="24.0.5" type="github" pages="2">
  <diagram name="ERD" id="SboeHnlmjvFyuBr7IB_S">
    <mxGraphModel dx="1120" dy="2122" grid="1" gridSize="10" guides="1" tooltips="1" connect="1" arrows="1" fold="1" page="1" pageScale="1" pageWidth="1169" pageHeight="827" math="0" shadow="0">
      <root>
        <mxCell id="0" />
        <mxCell id="1" parent="0" />
        <mxCell id="XR8owmAhhEutl3kefpd_-1" value="ERD DATABASE WEB&amp;nbsp;" style="text;html=1;align=left;verticalAlign=middle;resizable=0;points=[];autosize=1;strokeColor=none;fillColor=none;fontSize=16;fontStyle=5;rounded=1;labelBackgroundColor=none;fontColor=#393C56;" parent="1" vertex="1">
          <mxGeometry x="20" y="-1000" width="190" height="30" as="geometry" />
        </mxCell>
        <mxCell id="A0r3ACq8LYRDlUlL6kqf-1" value="Catatan:&lt;br style=&quot;font-size: 14px;&quot;&gt;* Diharapkan ada record tanggal (kalo bisa dalam bentuk file)&amp;nbsp;" style="text;html=1;align=left;verticalAlign=middle;resizable=0;points=[];autosize=1;strokeColor=none;fillColor=none;fontSize=14;fontStyle=1;rounded=1;labelBackgroundColor=none;fontColor=#393C56;" parent="1" vertex="1">
          <mxGeometry x="20" y="190" width="430" height="50" as="geometry" />
        </mxCell>
        <mxCell id="WJG24V2qsXTOzEI06b3e-1" value="SPK" style="shape=table;startSize=30;container=1;collapsible=1;childLayout=tableLayout;fixedRows=1;rowLines=0;fontStyle=1;align=center;resizeLast=1;html=1;rounded=1;labelBackgroundColor=none;fillColor=#F2CC8F;strokeColor=#E07A5F;fontColor=#393C56;" parent="1" vertex="1">
          <mxGeometry x="610" y="-960" width="240" height="360" as="geometry">
            <mxRectangle x="610" y="-960" width="80" height="30" as="alternateBounds" />
          </mxGeometry>
        </mxCell>
        <mxCell id="WJG24V2qsXTOzEI06b3e-2" value="" style="shape=tableRow;horizontal=0;startSize=0;swimlaneHead=0;swimlaneBody=0;fillColor=none;collapsible=0;dropTarget=0;points=[[0,0.5],[1,0.5]];portConstraint=eastwest;top=0;left=0;right=0;bottom=1;rounded=1;labelBackgroundColor=none;strokeColor=#E07A5F;fontColor=#393C56;" parent="WJG24V2qsXTOzEI06b3e-1" vertex="1">
          <mxGeometry y="30" width="240" height="30" as="geometry" />
        </mxCell>
        <mxCell id="WJG24V2qsXTOzEI06b3e-3" value="PK" style="shape=partialRectangle;connectable=0;fillColor=none;top=0;left=0;bottom=0;right=0;fontStyle=1;overflow=hidden;whiteSpace=wrap;html=1;rounded=1;labelBackgroundColor=none;strokeColor=#E07A5F;fontColor=#393C56;" parent="WJG24V2qsXTOzEI06b3e-2" vertex="1">
          <mxGeometry width="30" height="30" as="geometry">
            <mxRectangle width="30" height="30" as="alternateBounds" />
          </mxGeometry>
        </mxCell>
        <mxCell id="WJG24V2qsXTOzEI06b3e-4" value="id_spk : int" style="shape=partialRectangle;connectable=0;fillColor=none;top=0;left=0;bottom=0;right=0;align=left;spacingLeft=6;fontStyle=5;overflow=hidden;whiteSpace=wrap;html=1;rounded=1;labelBackgroundColor=none;strokeColor=#E07A5F;fontColor=#393C56;" parent="WJG24V2qsXTOzEI06b3e-2" vertex="1">
          <mxGeometry x="30" width="210" height="30" as="geometry">
            <mxRectangle width="210" height="30" as="alternateBounds" />
          </mxGeometry>
        </mxCell>
        <mxCell id="WJG24V2qsXTOzEI06b3e-5" value="" style="shape=tableRow;horizontal=0;startSize=0;swimlaneHead=0;swimlaneBody=0;fillColor=none;collapsible=0;dropTarget=0;points=[[0,0.5],[1,0.5]];portConstraint=eastwest;top=0;left=0;right=0;bottom=0;rounded=1;labelBackgroundColor=none;strokeColor=#E07A5F;fontColor=#393C56;" parent="WJG24V2qsXTOzEI06b3e-1" vertex="1">
          <mxGeometry y="60" width="240" height="30" as="geometry" />
        </mxCell>
        <mxCell id="WJG24V2qsXTOzEI06b3e-6" value="" style="shape=partialRectangle;connectable=0;fillColor=none;top=0;left=0;bottom=0;right=0;fontStyle=0;overflow=hidden;whiteSpace=wrap;html=1;rounded=1;labelBackgroundColor=none;strokeColor=#E07A5F;fontColor=#393C56;" parent="WJG24V2qsXTOzEI06b3e-5" vertex="1">
          <mxGeometry width="30" height="30" as="geometry">
            <mxRectangle width="30" height="30" as="alternateBounds" />
          </mxGeometry>
        </mxCell>
        <mxCell id="WJG24V2qsXTOzEI06b3e-7" value="pengorder : string" style="shape=partialRectangle;connectable=0;fillColor=none;top=0;left=0;bottom=0;right=0;align=left;spacingLeft=6;fontStyle=0;overflow=hidden;whiteSpace=wrap;html=1;rounded=1;labelBackgroundColor=none;strokeColor=#E07A5F;fontColor=#393C56;" parent="WJG24V2qsXTOzEI06b3e-5" vertex="1">
          <mxGeometry x="30" width="210" height="30" as="geometry">
            <mxRectangle width="210" height="30" as="alternateBounds" />
          </mxGeometry>
        </mxCell>
        <mxCell id="WJG24V2qsXTOzEI06b3e-8" value="" style="shape=tableRow;horizontal=0;startSize=0;swimlaneHead=0;swimlaneBody=0;fillColor=none;collapsible=0;dropTarget=0;points=[[0,0.5],[1,0.5]];portConstraint=eastwest;top=0;left=0;right=0;bottom=0;rounded=1;labelBackgroundColor=none;strokeColor=#E07A5F;fontColor=#393C56;" parent="WJG24V2qsXTOzEI06b3e-1" vertex="1">
          <mxGeometry y="90" width="240" height="30" as="geometry" />
        </mxCell>
        <mxCell id="WJG24V2qsXTOzEI06b3e-9" value="" style="shape=partialRectangle;connectable=0;fillColor=none;top=0;left=0;bottom=0;right=0;editable=1;overflow=hidden;whiteSpace=wrap;html=1;rounded=1;labelBackgroundColor=none;strokeColor=#E07A5F;fontColor=#393C56;" parent="WJG24V2qsXTOzEI06b3e-8" vertex="1">
          <mxGeometry width="30" height="30" as="geometry">
            <mxRectangle width="30" height="30" as="alternateBounds" />
          </mxGeometry>
        </mxCell>
        <mxCell id="WJG24V2qsXTOzEI06b3e-10" value="tgl_selesai : date" style="shape=partialRectangle;connectable=0;fillColor=none;top=0;left=0;bottom=0;right=0;align=left;spacingLeft=6;overflow=hidden;whiteSpace=wrap;html=1;rounded=1;labelBackgroundColor=none;strokeColor=#E07A5F;fontColor=#393C56;" parent="WJG24V2qsXTOzEI06b3e-8" vertex="1">
          <mxGeometry x="30" width="210" height="30" as="geometry">
            <mxRectangle width="210" height="30" as="alternateBounds" />
          </mxGeometry>
        </mxCell>
        <mxCell id="WJG24V2qsXTOzEI06b3e-11" value="" style="shape=tableRow;horizontal=0;startSize=0;swimlaneHead=0;swimlaneBody=0;fillColor=none;collapsible=0;dropTarget=0;points=[[0,0.5],[1,0.5]];portConstraint=eastwest;top=0;left=0;right=0;bottom=0;rounded=1;labelBackgroundColor=none;strokeColor=#E07A5F;fontColor=#393C56;" parent="WJG24V2qsXTOzEI06b3e-1" vertex="1">
          <mxGeometry y="120" width="240" height="30" as="geometry" />
        </mxCell>
        <mxCell id="WJG24V2qsXTOzEI06b3e-12" value="" style="shape=partialRectangle;connectable=0;fillColor=none;top=0;left=0;bottom=0;right=0;editable=1;overflow=hidden;whiteSpace=wrap;html=1;rounded=1;labelBackgroundColor=none;strokeColor=#E07A5F;fontColor=#393C56;" parent="WJG24V2qsXTOzEI06b3e-11" vertex="1">
          <mxGeometry width="30" height="30" as="geometry">
            <mxRectangle width="30" height="30" as="alternateBounds" />
          </mxGeometry>
        </mxCell>
        <mxCell id="WJG24V2qsXTOzEI06b3e-13" value="nama_produk : string" style="shape=partialRectangle;connectable=0;fillColor=none;top=0;left=0;bottom=0;right=0;align=left;spacingLeft=6;overflow=hidden;whiteSpace=wrap;html=1;rounded=1;labelBackgroundColor=none;strokeColor=#E07A5F;fontColor=#393C56;" parent="WJG24V2qsXTOzEI06b3e-11" vertex="1">
          <mxGeometry x="30" width="210" height="30" as="geometry">
            <mxRectangle width="210" height="30" as="alternateBounds" />
          </mxGeometry>
        </mxCell>
        <mxCell id="WJG24V2qsXTOzEI06b3e-14" value="" style="shape=tableRow;horizontal=0;startSize=0;swimlaneHead=0;swimlaneBody=0;fillColor=none;collapsible=0;dropTarget=0;points=[[0,0.5],[1,0.5]];portConstraint=eastwest;top=0;left=0;right=0;bottom=0;rounded=1;labelBackgroundColor=none;strokeColor=#E07A5F;fontColor=#393C56;" parent="WJG24V2qsXTOzEI06b3e-1" vertex="1">
          <mxGeometry y="150" width="240" height="30" as="geometry" />
        </mxCell>
        <mxCell id="WJG24V2qsXTOzEI06b3e-15" value="" style="shape=partialRectangle;connectable=0;fillColor=none;top=0;left=0;bottom=0;right=0;editable=1;overflow=hidden;rounded=1;labelBackgroundColor=none;strokeColor=#E07A5F;fontColor=#393C56;" parent="WJG24V2qsXTOzEI06b3e-14" vertex="1">
          <mxGeometry width="30" height="30" as="geometry">
            <mxRectangle width="30" height="30" as="alternateBounds" />
          </mxGeometry>
        </mxCell>
        <mxCell id="WJG24V2qsXTOzEI06b3e-16" value="Jml_pesanan : int" style="shape=partialRectangle;connectable=0;fillColor=none;top=0;left=0;bottom=0;right=0;align=left;spacingLeft=6;overflow=hidden;rounded=1;labelBackgroundColor=none;strokeColor=#E07A5F;fontColor=#393C56;" parent="WJG24V2qsXTOzEI06b3e-14" vertex="1">
          <mxGeometry x="30" width="210" height="30" as="geometry">
            <mxRectangle width="210" height="30" as="alternateBounds" />
          </mxGeometry>
        </mxCell>
        <mxCell id="WJG24V2qsXTOzEI06b3e-17" value="" style="shape=tableRow;horizontal=0;startSize=0;swimlaneHead=0;swimlaneBody=0;fillColor=none;collapsible=0;dropTarget=0;points=[[0,0.5],[1,0.5]];portConstraint=eastwest;top=0;left=0;right=0;bottom=0;rounded=1;labelBackgroundColor=none;strokeColor=#E07A5F;fontColor=#393C56;" parent="WJG24V2qsXTOzEI06b3e-1" vertex="1">
          <mxGeometry y="180" width="240" height="30" as="geometry" />
        </mxCell>
        <mxCell id="WJG24V2qsXTOzEI06b3e-18" value="" style="shape=partialRectangle;connectable=0;fillColor=none;top=0;left=0;bottom=0;right=0;editable=1;overflow=hidden;rounded=1;labelBackgroundColor=none;strokeColor=#E07A5F;fontColor=#393C56;" parent="WJG24V2qsXTOzEI06b3e-17" vertex="1">
          <mxGeometry width="30" height="30" as="geometry">
            <mxRectangle width="30" height="30" as="alternateBounds" />
          </mxGeometry>
        </mxCell>
        <mxCell id="WJG24V2qsXTOzEI06b3e-19" value="gbr_kerja : string" style="shape=partialRectangle;connectable=0;fillColor=none;top=0;left=0;bottom=0;right=0;align=left;spacingLeft=6;overflow=hidden;rounded=1;labelBackgroundColor=none;strokeColor=#E07A5F;fontColor=#393C56;" parent="WJG24V2qsXTOzEI06b3e-17" vertex="1">
          <mxGeometry x="30" width="210" height="30" as="geometry">
            <mxRectangle width="210" height="30" as="alternateBounds" />
          </mxGeometry>
        </mxCell>
        <mxCell id="heLeNHwjKqeDYPUmVcZM-8" style="shape=tableRow;horizontal=0;startSize=0;swimlaneHead=0;swimlaneBody=0;fillColor=none;collapsible=0;dropTarget=0;points=[[0,0.5],[1,0.5]];portConstraint=eastwest;top=0;left=0;right=0;bottom=0;rounded=1;labelBackgroundColor=none;strokeColor=#E07A5F;fontColor=#393C56;" parent="WJG24V2qsXTOzEI06b3e-1" vertex="1">
          <mxGeometry y="210" width="240" height="30" as="geometry" />
        </mxCell>
        <mxCell id="heLeNHwjKqeDYPUmVcZM-9" style="shape=partialRectangle;connectable=0;fillColor=none;top=0;left=0;bottom=0;right=0;editable=1;overflow=hidden;rounded=1;labelBackgroundColor=none;strokeColor=#E07A5F;fontColor=#393C56;" parent="heLeNHwjKqeDYPUmVcZM-8" vertex="1">
          <mxGeometry width="30" height="30" as="geometry">
            <mxRectangle width="30" height="30" as="alternateBounds" />
          </mxGeometry>
        </mxCell>
        <mxCell id="heLeNHwjKqeDYPUmVcZM-10" value="tanggal_dikeluarkan_UPM : date" style="shape=partialRectangle;connectable=0;fillColor=none;top=0;left=0;bottom=0;right=0;align=left;spacingLeft=6;overflow=hidden;rounded=1;labelBackgroundColor=none;strokeColor=#E07A5F;fontColor=#393C56;" parent="heLeNHwjKqeDYPUmVcZM-8" vertex="1">
          <mxGeometry x="30" width="210" height="30" as="geometry">
            <mxRectangle width="210" height="30" as="alternateBounds" />
          </mxGeometry>
        </mxCell>
        <mxCell id="heLeNHwjKqeDYPUmVcZM-11" style="shape=tableRow;horizontal=0;startSize=0;swimlaneHead=0;swimlaneBody=0;fillColor=none;collapsible=0;dropTarget=0;points=[[0,0.5],[1,0.5]];portConstraint=eastwest;top=0;left=0;right=0;bottom=0;rounded=1;labelBackgroundColor=none;strokeColor=#E07A5F;fontColor=#393C56;" parent="WJG24V2qsXTOzEI06b3e-1" vertex="1">
          <mxGeometry y="240" width="240" height="30" as="geometry" />
        </mxCell>
        <mxCell id="heLeNHwjKqeDYPUmVcZM-12" style="shape=partialRectangle;connectable=0;fillColor=none;top=0;left=0;bottom=0;right=0;editable=1;overflow=hidden;rounded=1;labelBackgroundColor=none;strokeColor=#E07A5F;fontColor=#393C56;" parent="heLeNHwjKqeDYPUmVcZM-11" vertex="1">
          <mxGeometry width="30" height="30" as="geometry">
            <mxRectangle width="30" height="30" as="alternateBounds" />
          </mxGeometry>
        </mxCell>
        <mxCell id="heLeNHwjKqeDYPUmVcZM-13" value="pelaksana_upm : date" style="shape=partialRectangle;connectable=0;fillColor=none;top=0;left=0;bottom=0;right=0;align=left;spacingLeft=6;overflow=hidden;rounded=1;labelBackgroundColor=none;strokeColor=#E07A5F;fontColor=#393C56;" parent="heLeNHwjKqeDYPUmVcZM-11" vertex="1">
          <mxGeometry x="30" width="210" height="30" as="geometry">
            <mxRectangle width="210" height="30" as="alternateBounds" />
          </mxGeometry>
        </mxCell>
        <mxCell id="heLeNHwjKqeDYPUmVcZM-14" style="shape=tableRow;horizontal=0;startSize=0;swimlaneHead=0;swimlaneBody=0;fillColor=none;collapsible=0;dropTarget=0;points=[[0,0.5],[1,0.5]];portConstraint=eastwest;top=0;left=0;right=0;bottom=0;rounded=1;labelBackgroundColor=none;strokeColor=#E07A5F;fontColor=#393C56;" parent="WJG24V2qsXTOzEI06b3e-1" vertex="1">
          <mxGeometry y="270" width="240" height="30" as="geometry" />
        </mxCell>
        <mxCell id="heLeNHwjKqeDYPUmVcZM-15" style="shape=partialRectangle;connectable=0;fillColor=none;top=0;left=0;bottom=0;right=0;editable=1;overflow=hidden;rounded=1;labelBackgroundColor=none;strokeColor=#E07A5F;fontColor=#393C56;" parent="heLeNHwjKqeDYPUmVcZM-14" vertex="1">
          <mxGeometry width="30" height="30" as="geometry">
            <mxRectangle width="30" height="30" as="alternateBounds" />
          </mxGeometry>
        </mxCell>
        <mxCell id="heLeNHwjKqeDYPUmVcZM-16" value="disetujui_kajur_kaunit_kappc : string" style="shape=partialRectangle;connectable=0;fillColor=none;top=0;left=0;bottom=0;right=0;align=left;spacingLeft=6;overflow=hidden;rounded=1;labelBackgroundColor=none;strokeColor=#E07A5F;fontColor=#393C56;" parent="heLeNHwjKqeDYPUmVcZM-14" vertex="1">
          <mxGeometry x="30" width="210" height="30" as="geometry">
            <mxRectangle width="210" height="30" as="alternateBounds" />
          </mxGeometry>
        </mxCell>
        <mxCell id="heLeNHwjKqeDYPUmVcZM-17" style="shape=tableRow;horizontal=0;startSize=0;swimlaneHead=0;swimlaneBody=0;fillColor=none;collapsible=0;dropTarget=0;points=[[0,0.5],[1,0.5]];portConstraint=eastwest;top=0;left=0;right=0;bottom=0;rounded=1;labelBackgroundColor=none;strokeColor=#E07A5F;fontColor=#393C56;" parent="WJG24V2qsXTOzEI06b3e-1" vertex="1">
          <mxGeometry y="300" width="240" height="30" as="geometry" />
        </mxCell>
        <mxCell id="heLeNHwjKqeDYPUmVcZM-18" style="shape=partialRectangle;connectable=0;fillColor=none;top=0;left=0;bottom=0;right=0;editable=1;overflow=hidden;rounded=1;labelBackgroundColor=none;strokeColor=#E07A5F;fontColor=#393C56;" parent="heLeNHwjKqeDYPUmVcZM-17" vertex="1">
          <mxGeometry width="30" height="30" as="geometry">
            <mxRectangle width="30" height="30" as="alternateBounds" />
          </mxGeometry>
        </mxCell>
        <mxCell id="heLeNHwjKqeDYPUmVcZM-19" value="ka_tim_pelaksana : string" style="shape=partialRectangle;connectable=0;fillColor=none;top=0;left=0;bottom=0;right=0;align=left;spacingLeft=6;overflow=hidden;rounded=1;labelBackgroundColor=none;strokeColor=#E07A5F;fontColor=#393C56;" parent="heLeNHwjKqeDYPUmVcZM-17" vertex="1">
          <mxGeometry x="30" width="210" height="30" as="geometry">
            <mxRectangle width="210" height="30" as="alternateBounds" />
          </mxGeometry>
        </mxCell>
        <mxCell id="heLeNHwjKqeDYPUmVcZM-20" style="shape=tableRow;horizontal=0;startSize=0;swimlaneHead=0;swimlaneBody=0;fillColor=none;collapsible=0;dropTarget=0;points=[[0,0.5],[1,0.5]];portConstraint=eastwest;top=0;left=0;right=0;bottom=0;rounded=1;labelBackgroundColor=none;strokeColor=#E07A5F;fontColor=#393C56;" parent="WJG24V2qsXTOzEI06b3e-1" vertex="1">
          <mxGeometry y="330" width="240" height="30" as="geometry" />
        </mxCell>
        <mxCell id="heLeNHwjKqeDYPUmVcZM-21" style="shape=partialRectangle;connectable=0;fillColor=none;top=0;left=0;bottom=0;right=0;editable=1;overflow=hidden;rounded=1;labelBackgroundColor=none;strokeColor=#E07A5F;fontColor=#393C56;" parent="heLeNHwjKqeDYPUmVcZM-20" vertex="1">
          <mxGeometry width="30" height="30" as="geometry">
            <mxRectangle width="30" height="30" as="alternateBounds" />
          </mxGeometry>
        </mxCell>
        <mxCell id="heLeNHwjKqeDYPUmVcZM-22" value="batas_waktu : date" style="shape=partialRectangle;connectable=0;fillColor=none;top=0;left=0;bottom=0;right=0;align=left;spacingLeft=6;overflow=hidden;rounded=1;labelBackgroundColor=none;strokeColor=#E07A5F;fontColor=#393C56;" parent="heLeNHwjKqeDYPUmVcZM-20" vertex="1">
          <mxGeometry x="30" width="210" height="30" as="geometry">
            <mxRectangle width="210" height="30" as="alternateBounds" />
          </mxGeometry>
        </mxCell>
        <mxCell id="WJG24V2qsXTOzEI06b3e-20" value="Worker" style="shape=table;startSize=30;container=1;collapsible=1;childLayout=tableLayout;fixedRows=1;rowLines=0;fontStyle=1;align=center;resizeLast=1;html=1;rounded=1;labelBackgroundColor=none;fillColor=#F2CC8F;strokeColor=#E07A5F;fontColor=#393C56;" parent="1" vertex="1">
          <mxGeometry x="730" width="180" height="180" as="geometry">
            <mxRectangle x="70" y="230" width="80" height="30" as="alternateBounds" />
          </mxGeometry>
        </mxCell>
        <mxCell id="WJG24V2qsXTOzEI06b3e-21" value="" style="shape=tableRow;horizontal=0;startSize=0;swimlaneHead=0;swimlaneBody=0;fillColor=none;collapsible=0;dropTarget=0;points=[[0,0.5],[1,0.5]];portConstraint=eastwest;top=0;left=0;right=0;bottom=1;rounded=1;labelBackgroundColor=none;strokeColor=#E07A5F;fontColor=#393C56;" parent="WJG24V2qsXTOzEI06b3e-20" vertex="1">
          <mxGeometry y="30" width="180" height="30" as="geometry" />
        </mxCell>
        <mxCell id="WJG24V2qsXTOzEI06b3e-22" value="PK" style="shape=partialRectangle;connectable=0;fillColor=none;top=0;left=0;bottom=0;right=0;fontStyle=1;overflow=hidden;whiteSpace=wrap;html=1;rounded=1;labelBackgroundColor=none;strokeColor=#E07A5F;fontColor=#393C56;" parent="WJG24V2qsXTOzEI06b3e-21" vertex="1">
          <mxGeometry width="30" height="30" as="geometry">
            <mxRectangle width="30" height="30" as="alternateBounds" />
          </mxGeometry>
        </mxCell>
        <mxCell id="WJG24V2qsXTOzEI06b3e-23" value="id_worker : int" style="shape=partialRectangle;connectable=0;fillColor=none;top=0;left=0;bottom=0;right=0;align=left;spacingLeft=6;fontStyle=5;overflow=hidden;whiteSpace=wrap;html=1;rounded=1;labelBackgroundColor=none;strokeColor=#E07A5F;fontColor=#393C56;" parent="WJG24V2qsXTOzEI06b3e-21" vertex="1">
          <mxGeometry x="30" width="150" height="30" as="geometry">
            <mxRectangle width="150" height="30" as="alternateBounds" />
          </mxGeometry>
        </mxCell>
        <mxCell id="WJG24V2qsXTOzEI06b3e-24" value="" style="shape=tableRow;horizontal=0;startSize=0;swimlaneHead=0;swimlaneBody=0;fillColor=none;collapsible=0;dropTarget=0;points=[[0,0.5],[1,0.5]];portConstraint=eastwest;top=0;left=0;right=0;bottom=0;rounded=1;labelBackgroundColor=none;strokeColor=#E07A5F;fontColor=#393C56;" parent="WJG24V2qsXTOzEI06b3e-20" vertex="1">
          <mxGeometry y="60" width="180" height="30" as="geometry" />
        </mxCell>
        <mxCell id="WJG24V2qsXTOzEI06b3e-25" value="" style="shape=partialRectangle;connectable=0;fillColor=none;top=0;left=0;bottom=0;right=0;editable=1;overflow=hidden;whiteSpace=wrap;html=1;rounded=1;labelBackgroundColor=none;strokeColor=#E07A5F;fontColor=#393C56;" parent="WJG24V2qsXTOzEI06b3e-24" vertex="1">
          <mxGeometry width="30" height="30" as="geometry">
            <mxRectangle width="30" height="30" as="alternateBounds" />
          </mxGeometry>
        </mxCell>
        <mxCell id="WJG24V2qsXTOzEI06b3e-26" value="ID : int" style="shape=partialRectangle;connectable=0;fillColor=none;top=0;left=0;bottom=0;right=0;align=left;spacingLeft=6;overflow=hidden;whiteSpace=wrap;html=1;rounded=1;labelBackgroundColor=none;strokeColor=#E07A5F;fontColor=#393C56;" parent="WJG24V2qsXTOzEI06b3e-24" vertex="1">
          <mxGeometry x="30" width="150" height="30" as="geometry">
            <mxRectangle width="150" height="30" as="alternateBounds" />
          </mxGeometry>
        </mxCell>
        <mxCell id="WJG24V2qsXTOzEI06b3e-27" value="" style="shape=tableRow;horizontal=0;startSize=0;swimlaneHead=0;swimlaneBody=0;fillColor=none;collapsible=0;dropTarget=0;points=[[0,0.5],[1,0.5]];portConstraint=eastwest;top=0;left=0;right=0;bottom=0;rounded=1;labelBackgroundColor=none;strokeColor=#E07A5F;fontColor=#393C56;" parent="WJG24V2qsXTOzEI06b3e-20" vertex="1">
          <mxGeometry y="90" width="180" height="30" as="geometry" />
        </mxCell>
        <mxCell id="WJG24V2qsXTOzEI06b3e-28" value="" style="shape=partialRectangle;connectable=0;fillColor=none;top=0;left=0;bottom=0;right=0;editable=1;overflow=hidden;whiteSpace=wrap;html=1;rounded=1;labelBackgroundColor=none;strokeColor=#E07A5F;fontColor=#393C56;" parent="WJG24V2qsXTOzEI06b3e-27" vertex="1">
          <mxGeometry width="30" height="30" as="geometry">
            <mxRectangle width="30" height="30" as="alternateBounds" />
          </mxGeometry>
        </mxCell>
        <mxCell id="WJG24V2qsXTOzEI06b3e-29" value="Password : string" style="shape=partialRectangle;connectable=0;fillColor=none;top=0;left=0;bottom=0;right=0;align=left;spacingLeft=6;overflow=hidden;whiteSpace=wrap;html=1;rounded=1;labelBackgroundColor=none;strokeColor=#E07A5F;fontColor=#393C56;" parent="WJG24V2qsXTOzEI06b3e-27" vertex="1">
          <mxGeometry x="30" width="150" height="30" as="geometry">
            <mxRectangle width="150" height="30" as="alternateBounds" />
          </mxGeometry>
        </mxCell>
        <mxCell id="WJG24V2qsXTOzEI06b3e-30" value="" style="shape=tableRow;horizontal=0;startSize=0;swimlaneHead=0;swimlaneBody=0;fillColor=none;collapsible=0;dropTarget=0;points=[[0,0.5],[1,0.5]];portConstraint=eastwest;top=0;left=0;right=0;bottom=0;rounded=1;labelBackgroundColor=none;strokeColor=#E07A5F;fontColor=#393C56;" parent="WJG24V2qsXTOzEI06b3e-20" vertex="1">
          <mxGeometry y="120" width="180" height="30" as="geometry" />
        </mxCell>
        <mxCell id="WJG24V2qsXTOzEI06b3e-31" value="" style="shape=partialRectangle;connectable=0;fillColor=none;top=0;left=0;bottom=0;right=0;editable=1;overflow=hidden;whiteSpace=wrap;html=1;rounded=1;labelBackgroundColor=none;strokeColor=#E07A5F;fontColor=#393C56;" parent="WJG24V2qsXTOzEI06b3e-30" vertex="1">
          <mxGeometry width="30" height="30" as="geometry">
            <mxRectangle width="30" height="30" as="alternateBounds" />
          </mxGeometry>
        </mxCell>
        <mxCell id="WJG24V2qsXTOzEI06b3e-32" value="Name : string" style="shape=partialRectangle;connectable=0;fillColor=none;top=0;left=0;bottom=0;right=0;align=left;spacingLeft=6;overflow=hidden;whiteSpace=wrap;html=1;rounded=1;labelBackgroundColor=none;strokeColor=#E07A5F;fontColor=#393C56;" parent="WJG24V2qsXTOzEI06b3e-30" vertex="1">
          <mxGeometry x="30" width="150" height="30" as="geometry">
            <mxRectangle width="150" height="30" as="alternateBounds" />
          </mxGeometry>
        </mxCell>
        <mxCell id="WJG24V2qsXTOzEI06b3e-33" value="" style="shape=tableRow;horizontal=0;startSize=0;swimlaneHead=0;swimlaneBody=0;fillColor=none;collapsible=0;dropTarget=0;points=[[0,0.5],[1,0.5]];portConstraint=eastwest;top=0;left=0;right=0;bottom=0;rounded=1;labelBackgroundColor=none;strokeColor=#E07A5F;fontColor=#393C56;" parent="WJG24V2qsXTOzEI06b3e-20" vertex="1">
          <mxGeometry y="150" width="180" height="30" as="geometry" />
        </mxCell>
        <mxCell id="WJG24V2qsXTOzEI06b3e-34" value="" style="shape=partialRectangle;connectable=0;fillColor=none;top=0;left=0;bottom=0;right=0;editable=1;overflow=hidden;rounded=1;labelBackgroundColor=none;strokeColor=#E07A5F;fontColor=#393C56;" parent="WJG24V2qsXTOzEI06b3e-33" vertex="1">
          <mxGeometry width="30" height="30" as="geometry">
            <mxRectangle width="30" height="30" as="alternateBounds" />
          </mxGeometry>
        </mxCell>
        <mxCell id="WJG24V2qsXTOzEI06b3e-35" value="Role : string" style="shape=partialRectangle;connectable=0;fillColor=none;top=0;left=0;bottom=0;right=0;align=left;spacingLeft=6;overflow=hidden;rounded=1;labelBackgroundColor=none;strokeColor=#E07A5F;fontColor=#393C56;" parent="WJG24V2qsXTOzEI06b3e-33" vertex="1">
          <mxGeometry x="30" width="150" height="30" as="geometry">
            <mxRectangle width="150" height="30" as="alternateBounds" />
          </mxGeometry>
        </mxCell>
        <mxCell id="WJG24V2qsXTOzEI06b3e-36" value="Pengerjaan" style="shape=table;startSize=30;container=1;collapsible=1;childLayout=tableLayout;fixedRows=1;rowLines=0;fontStyle=1;align=center;resizeLast=1;html=1;rounded=1;labelBackgroundColor=none;fillColor=#F2CC8F;strokeColor=#E07A5F;fontColor=#393C56;" parent="1" vertex="1">
          <mxGeometry x="960" y="-780" width="180" height="300.0000000000001" as="geometry">
            <mxRectangle x="870" y="13" width="110" height="30" as="alternateBounds" />
          </mxGeometry>
        </mxCell>
        <mxCell id="WJG24V2qsXTOzEI06b3e-37" value="" style="shape=tableRow;horizontal=0;startSize=0;swimlaneHead=0;swimlaneBody=0;fillColor=none;collapsible=0;dropTarget=0;points=[[0,0.5],[1,0.5]];portConstraint=eastwest;top=0;left=0;right=0;bottom=1;rounded=1;labelBackgroundColor=none;strokeColor=#E07A5F;fontColor=#393C56;" parent="WJG24V2qsXTOzEI06b3e-36" vertex="1">
          <mxGeometry y="30" width="180" height="30" as="geometry" />
        </mxCell>
        <mxCell id="WJG24V2qsXTOzEI06b3e-38" value="PK" style="shape=partialRectangle;connectable=0;fillColor=none;top=0;left=0;bottom=0;right=0;fontStyle=1;overflow=hidden;whiteSpace=wrap;html=1;rounded=1;labelBackgroundColor=none;strokeColor=#E07A5F;fontColor=#393C56;" parent="WJG24V2qsXTOzEI06b3e-37" vertex="1">
          <mxGeometry width="30" height="30" as="geometry">
            <mxRectangle width="30" height="30" as="alternateBounds" />
          </mxGeometry>
        </mxCell>
        <mxCell id="WJG24V2qsXTOzEI06b3e-39" value="&lt;b&gt;&lt;u&gt;id_pengerjaan :int&lt;/u&gt;&lt;/b&gt;" style="shape=partialRectangle;connectable=0;fillColor=none;top=0;left=0;bottom=0;right=0;align=left;spacingLeft=6;fontStyle=0;overflow=hidden;whiteSpace=wrap;html=1;rounded=1;labelBackgroundColor=none;strokeColor=#E07A5F;fontColor=#393C56;" parent="WJG24V2qsXTOzEI06b3e-37" vertex="1">
          <mxGeometry x="30" width="150" height="30" as="geometry">
            <mxRectangle width="150" height="30" as="alternateBounds" />
          </mxGeometry>
        </mxCell>
        <mxCell id="WJG24V2qsXTOzEI06b3e-40" value="" style="shape=tableRow;horizontal=0;startSize=0;swimlaneHead=0;swimlaneBody=0;fillColor=none;collapsible=0;dropTarget=0;points=[[0,0.5],[1,0.5]];portConstraint=eastwest;top=0;left=0;right=0;bottom=0;rounded=1;labelBackgroundColor=none;strokeColor=#E07A5F;fontColor=#393C56;" parent="WJG24V2qsXTOzEI06b3e-36" vertex="1">
          <mxGeometry y="60" width="180" height="30" as="geometry" />
        </mxCell>
        <mxCell id="WJG24V2qsXTOzEI06b3e-41" value="FK" style="shape=partialRectangle;connectable=0;fillColor=none;top=0;left=0;bottom=0;right=0;fontStyle=0;overflow=hidden;whiteSpace=wrap;html=1;rounded=1;labelBackgroundColor=none;strokeColor=#E07A5F;fontColor=#393C56;" parent="WJG24V2qsXTOzEI06b3e-40" vertex="1">
          <mxGeometry width="30" height="30" as="geometry">
            <mxRectangle width="30" height="30" as="alternateBounds" />
          </mxGeometry>
        </mxCell>
        <mxCell id="WJG24V2qsXTOzEI06b3e-42" value="id_spk : int" style="shape=partialRectangle;connectable=0;fillColor=none;top=0;left=0;bottom=0;right=0;align=left;spacingLeft=6;fontStyle=0;overflow=hidden;whiteSpace=wrap;html=1;rounded=1;labelBackgroundColor=none;strokeColor=#E07A5F;fontColor=#393C56;" parent="WJG24V2qsXTOzEI06b3e-40" vertex="1">
          <mxGeometry x="30" width="150" height="30" as="geometry">
            <mxRectangle width="150" height="30" as="alternateBounds" />
          </mxGeometry>
        </mxCell>
        <mxCell id="WJG24V2qsXTOzEI06b3e-43" value="" style="shape=tableRow;horizontal=0;startSize=0;swimlaneHead=0;swimlaneBody=0;fillColor=none;collapsible=0;dropTarget=0;points=[[0,0.5],[1,0.5]];portConstraint=eastwest;top=0;left=0;right=0;bottom=0;rounded=1;labelBackgroundColor=none;strokeColor=#E07A5F;fontColor=#393C56;" parent="WJG24V2qsXTOzEI06b3e-36" vertex="1">
          <mxGeometry y="90" width="180" height="30" as="geometry" />
        </mxCell>
        <mxCell id="WJG24V2qsXTOzEI06b3e-44" value="FK" style="shape=partialRectangle;connectable=0;fillColor=none;top=0;left=0;bottom=0;right=0;fontStyle=0;overflow=hidden;whiteSpace=wrap;html=1;rounded=1;labelBackgroundColor=none;strokeColor=#E07A5F;fontColor=#393C56;" parent="WJG24V2qsXTOzEI06b3e-43" vertex="1">
          <mxGeometry width="30" height="30" as="geometry">
            <mxRectangle width="30" height="30" as="alternateBounds" />
          </mxGeometry>
        </mxCell>
        <mxCell id="WJG24V2qsXTOzEI06b3e-45" value="id_prosesstart : int" style="shape=partialRectangle;connectable=0;fillColor=none;top=0;left=0;bottom=0;right=0;align=left;spacingLeft=6;fontStyle=0;overflow=hidden;whiteSpace=wrap;html=1;rounded=1;labelBackgroundColor=none;strokeColor=#E07A5F;fontColor=#393C56;" parent="WJG24V2qsXTOzEI06b3e-43" vertex="1">
          <mxGeometry x="30" width="150" height="30" as="geometry">
            <mxRectangle width="150" height="30" as="alternateBounds" />
          </mxGeometry>
        </mxCell>
        <mxCell id="WJG24V2qsXTOzEI06b3e-46" value="" style="shape=tableRow;horizontal=0;startSize=0;swimlaneHead=0;swimlaneBody=0;fillColor=none;collapsible=0;dropTarget=0;points=[[0,0.5],[1,0.5]];portConstraint=eastwest;top=0;left=0;right=0;bottom=0;rounded=1;labelBackgroundColor=none;strokeColor=#E07A5F;fontColor=#393C56;" parent="WJG24V2qsXTOzEI06b3e-36" vertex="1">
          <mxGeometry y="120" width="180" height="30" as="geometry" />
        </mxCell>
        <mxCell id="WJG24V2qsXTOzEI06b3e-47" value="FK" style="shape=partialRectangle;connectable=0;fillColor=none;top=0;left=0;bottom=0;right=0;editable=1;overflow=hidden;rounded=1;labelBackgroundColor=none;strokeColor=#E07A5F;fontColor=#393C56;" parent="WJG24V2qsXTOzEI06b3e-46" vertex="1">
          <mxGeometry width="30" height="30" as="geometry">
            <mxRectangle width="30" height="30" as="alternateBounds" />
          </mxGeometry>
        </mxCell>
        <mxCell id="WJG24V2qsXTOzEI06b3e-48" value="id_mesin : int" style="shape=partialRectangle;connectable=0;fillColor=none;top=0;left=0;bottom=0;right=0;align=left;spacingLeft=6;overflow=hidden;rounded=1;labelBackgroundColor=none;strokeColor=#E07A5F;fontColor=#393C56;" parent="WJG24V2qsXTOzEI06b3e-46" vertex="1">
          <mxGeometry x="30" width="150" height="30" as="geometry">
            <mxRectangle width="150" height="30" as="alternateBounds" />
          </mxGeometry>
        </mxCell>
        <mxCell id="WJG24V2qsXTOzEI06b3e-49" style="shape=tableRow;horizontal=0;startSize=0;swimlaneHead=0;swimlaneBody=0;fillColor=none;collapsible=0;dropTarget=0;points=[[0,0.5],[1,0.5]];portConstraint=eastwest;top=0;left=0;right=0;bottom=0;rounded=1;labelBackgroundColor=none;strokeColor=#E07A5F;fontColor=#393C56;" parent="WJG24V2qsXTOzEI06b3e-36" vertex="1">
          <mxGeometry y="150" width="180" height="30" as="geometry" />
        </mxCell>
        <mxCell id="WJG24V2qsXTOzEI06b3e-50" value="" style="shape=partialRectangle;connectable=0;fillColor=none;top=0;left=0;bottom=0;right=0;editable=1;overflow=hidden;rounded=1;labelBackgroundColor=none;strokeColor=#E07A5F;fontColor=#393C56;" parent="WJG24V2qsXTOzEI06b3e-49" vertex="1">
          <mxGeometry width="30" height="30" as="geometry">
            <mxRectangle width="30" height="30" as="alternateBounds" />
          </mxGeometry>
        </mxCell>
        <mxCell id="WJG24V2qsXTOzEI06b3e-51" value="tgl_selesai : date" style="shape=partialRectangle;connectable=0;fillColor=none;top=0;left=0;bottom=0;right=0;align=left;spacingLeft=6;overflow=hidden;rounded=1;labelBackgroundColor=none;strokeColor=#E07A5F;fontColor=#393C56;" parent="WJG24V2qsXTOzEI06b3e-49" vertex="1">
          <mxGeometry x="30" width="150" height="30" as="geometry">
            <mxRectangle width="150" height="30" as="alternateBounds" />
          </mxGeometry>
        </mxCell>
        <mxCell id="WJG24V2qsXTOzEI06b3e-52" style="shape=tableRow;horizontal=0;startSize=0;swimlaneHead=0;swimlaneBody=0;fillColor=none;collapsible=0;dropTarget=0;points=[[0,0.5],[1,0.5]];portConstraint=eastwest;top=0;left=0;right=0;bottom=0;rounded=1;labelBackgroundColor=none;strokeColor=#E07A5F;fontColor=#393C56;" parent="WJG24V2qsXTOzEI06b3e-36" vertex="1">
          <mxGeometry y="180" width="180" height="30" as="geometry" />
        </mxCell>
        <mxCell id="WJG24V2qsXTOzEI06b3e-53" value="" style="shape=partialRectangle;connectable=0;fillColor=none;top=0;left=0;bottom=0;right=0;editable=1;overflow=hidden;rounded=1;labelBackgroundColor=none;strokeColor=#E07A5F;fontColor=#393C56;" parent="WJG24V2qsXTOzEI06b3e-52" vertex="1">
          <mxGeometry width="30" height="30" as="geometry">
            <mxRectangle width="30" height="30" as="alternateBounds" />
          </mxGeometry>
        </mxCell>
        <mxCell id="WJG24V2qsXTOzEI06b3e-54" value="progress : int" style="shape=partialRectangle;connectable=0;fillColor=none;top=0;left=0;bottom=0;right=0;align=left;spacingLeft=6;overflow=hidden;rounded=1;labelBackgroundColor=none;strokeColor=#E07A5F;fontColor=#393C56;" parent="WJG24V2qsXTOzEI06b3e-52" vertex="1">
          <mxGeometry x="30" width="150" height="30" as="geometry">
            <mxRectangle width="150" height="30" as="alternateBounds" />
          </mxGeometry>
        </mxCell>
        <mxCell id="WJG24V2qsXTOzEI06b3e-55" value="" style="shape=tableRow;horizontal=0;startSize=0;swimlaneHead=0;swimlaneBody=0;fillColor=none;collapsible=0;dropTarget=0;points=[[0,0.5],[1,0.5]];portConstraint=eastwest;top=0;left=0;right=0;bottom=0;rounded=1;labelBackgroundColor=none;strokeColor=#E07A5F;fontColor=#393C56;" parent="WJG24V2qsXTOzEI06b3e-36" vertex="1">
          <mxGeometry y="210" width="180" height="30" as="geometry" />
        </mxCell>
        <mxCell id="WJG24V2qsXTOzEI06b3e-56" value="" style="shape=partialRectangle;connectable=0;fillColor=none;top=0;left=0;bottom=0;right=0;editable=1;overflow=hidden;rounded=1;labelBackgroundColor=none;strokeColor=#E07A5F;fontColor=#393C56;" parent="WJG24V2qsXTOzEI06b3e-55" vertex="1">
          <mxGeometry width="30" height="30" as="geometry">
            <mxRectangle width="30" height="30" as="alternateBounds" />
          </mxGeometry>
        </mxCell>
        <mxCell id="WJG24V2qsXTOzEI06b3e-57" value="jml_barang : int" style="shape=partialRectangle;connectable=0;fillColor=none;top=0;left=0;bottom=0;right=0;align=left;spacingLeft=6;overflow=hidden;rounded=1;labelBackgroundColor=none;strokeColor=#E07A5F;fontColor=#393C56;" parent="WJG24V2qsXTOzEI06b3e-55" vertex="1">
          <mxGeometry x="30" width="150" height="30" as="geometry">
            <mxRectangle width="150" height="30" as="alternateBounds" />
          </mxGeometry>
        </mxCell>
        <mxCell id="WJG24V2qsXTOzEI06b3e-58" value="" style="shape=tableRow;horizontal=0;startSize=0;swimlaneHead=0;swimlaneBody=0;fillColor=none;collapsible=0;dropTarget=0;points=[[0,0.5],[1,0.5]];portConstraint=eastwest;top=0;left=0;right=0;bottom=0;rounded=1;labelBackgroundColor=none;strokeColor=#E07A5F;fontColor=#393C56;" parent="WJG24V2qsXTOzEI06b3e-36" vertex="1">
          <mxGeometry y="240" width="180" height="30" as="geometry" />
        </mxCell>
        <mxCell id="WJG24V2qsXTOzEI06b3e-59" value="" style="shape=partialRectangle;connectable=0;fillColor=none;top=0;left=0;bottom=0;right=0;editable=1;overflow=hidden;rounded=1;labelBackgroundColor=none;strokeColor=#E07A5F;fontColor=#393C56;" parent="WJG24V2qsXTOzEI06b3e-58" vertex="1">
          <mxGeometry width="30" height="30" as="geometry">
            <mxRectangle width="30" height="30" as="alternateBounds" />
          </mxGeometry>
        </mxCell>
        <mxCell id="WJG24V2qsXTOzEI06b3e-60" value="wkt_pengerjaan : int" style="shape=partialRectangle;connectable=0;fillColor=none;top=0;left=0;bottom=0;right=0;align=left;spacingLeft=6;overflow=hidden;rounded=1;labelBackgroundColor=none;strokeColor=#E07A5F;fontColor=#393C56;" parent="WJG24V2qsXTOzEI06b3e-58" vertex="1">
          <mxGeometry x="30" width="150" height="30" as="geometry">
            <mxRectangle width="150" height="30" as="alternateBounds" />
          </mxGeometry>
        </mxCell>
        <mxCell id="WJG24V2qsXTOzEI06b3e-61" style="shape=tableRow;horizontal=0;startSize=0;swimlaneHead=0;swimlaneBody=0;fillColor=none;collapsible=0;dropTarget=0;points=[[0,0.5],[1,0.5]];portConstraint=eastwest;top=0;left=0;right=0;bottom=0;rounded=1;labelBackgroundColor=none;strokeColor=#E07A5F;fontColor=#393C56;" parent="WJG24V2qsXTOzEI06b3e-36" vertex="1">
          <mxGeometry y="270" width="180" height="30" as="geometry" />
        </mxCell>
        <mxCell id="WJG24V2qsXTOzEI06b3e-62" value="FK" style="shape=partialRectangle;connectable=0;fillColor=none;top=0;left=0;bottom=0;right=0;editable=1;overflow=hidden;rounded=1;labelBackgroundColor=none;strokeColor=#E07A5F;fontColor=#393C56;" parent="WJG24V2qsXTOzEI06b3e-61" vertex="1">
          <mxGeometry width="30" height="30" as="geometry">
            <mxRectangle width="30" height="30" as="alternateBounds" />
          </mxGeometry>
        </mxCell>
        <mxCell id="WJG24V2qsXTOzEI06b3e-63" value="id_worker : int" style="shape=partialRectangle;connectable=0;fillColor=none;top=0;left=0;bottom=0;right=0;align=left;spacingLeft=6;overflow=hidden;rounded=1;labelBackgroundColor=none;strokeColor=#E07A5F;fontColor=#393C56;" parent="WJG24V2qsXTOzEI06b3e-61" vertex="1">
          <mxGeometry x="30" width="150" height="30" as="geometry">
            <mxRectangle width="150" height="30" as="alternateBounds" />
          </mxGeometry>
        </mxCell>
        <mxCell id="WJG24V2qsXTOzEI06b3e-64" value="Form Order Logistik" style="shape=table;startSize=30;container=1;collapsible=1;childLayout=tableLayout;fixedRows=1;rowLines=0;fontStyle=1;align=center;resizeLast=1;html=1;rounded=1;labelBackgroundColor=none;fillColor=#F2CC8F;strokeColor=#E07A5F;fontColor=#393C56;" parent="1" vertex="1">
          <mxGeometry x="330" y="-403" width="210" height="570" as="geometry">
            <mxRectangle x="770" y="264" width="90" height="30" as="alternateBounds" />
          </mxGeometry>
        </mxCell>
        <mxCell id="WJG24V2qsXTOzEI06b3e-65" value="" style="shape=tableRow;horizontal=0;startSize=0;swimlaneHead=0;swimlaneBody=0;fillColor=none;collapsible=0;dropTarget=0;points=[[0,0.5],[1,0.5]];portConstraint=eastwest;top=0;left=0;right=0;bottom=1;rounded=1;labelBackgroundColor=none;strokeColor=#E07A5F;fontColor=#393C56;" parent="WJG24V2qsXTOzEI06b3e-64" vertex="1">
          <mxGeometry y="30" width="210" height="30" as="geometry" />
        </mxCell>
        <mxCell id="WJG24V2qsXTOzEI06b3e-66" value="PK" style="shape=partialRectangle;connectable=0;fillColor=none;top=0;left=0;bottom=0;right=0;fontStyle=1;overflow=hidden;whiteSpace=wrap;html=1;rounded=1;labelBackgroundColor=none;strokeColor=#E07A5F;fontColor=#393C56;" parent="WJG24V2qsXTOzEI06b3e-65" vertex="1">
          <mxGeometry width="30" height="30" as="geometry">
            <mxRectangle width="30" height="30" as="alternateBounds" />
          </mxGeometry>
        </mxCell>
        <mxCell id="WJG24V2qsXTOzEI06b3e-67" value="id_orderlog : int" style="shape=partialRectangle;connectable=0;fillColor=none;top=0;left=0;bottom=0;right=0;align=left;spacingLeft=6;fontStyle=5;overflow=hidden;whiteSpace=wrap;html=1;rounded=1;labelBackgroundColor=none;strokeColor=#E07A5F;fontColor=#393C56;" parent="WJG24V2qsXTOzEI06b3e-65" vertex="1">
          <mxGeometry x="30" width="180" height="30" as="geometry">
            <mxRectangle width="180" height="30" as="alternateBounds" />
          </mxGeometry>
        </mxCell>
        <mxCell id="WJG24V2qsXTOzEI06b3e-68" value="" style="shape=tableRow;horizontal=0;startSize=0;swimlaneHead=0;swimlaneBody=0;fillColor=none;collapsible=0;dropTarget=0;points=[[0,0.5],[1,0.5]];portConstraint=eastwest;top=0;left=0;right=0;bottom=0;rounded=1;labelBackgroundColor=none;strokeColor=#E07A5F;fontColor=#393C56;" parent="WJG24V2qsXTOzEI06b3e-64" vertex="1">
          <mxGeometry y="60" width="210" height="30" as="geometry" />
        </mxCell>
        <mxCell id="WJG24V2qsXTOzEI06b3e-69" value="FK" style="shape=partialRectangle;connectable=0;fillColor=none;top=0;left=0;bottom=0;right=0;editable=1;overflow=hidden;whiteSpace=wrap;html=1;rounded=1;labelBackgroundColor=none;strokeColor=#E07A5F;fontColor=#393C56;" parent="WJG24V2qsXTOzEI06b3e-68" vertex="1">
          <mxGeometry width="30" height="30" as="geometry">
            <mxRectangle width="30" height="30" as="alternateBounds" />
          </mxGeometry>
        </mxCell>
        <mxCell id="WJG24V2qsXTOzEI06b3e-70" value="id_worker : int" style="shape=partialRectangle;connectable=0;fillColor=none;top=0;left=0;bottom=0;right=0;align=left;spacingLeft=6;overflow=hidden;whiteSpace=wrap;html=1;rounded=1;labelBackgroundColor=none;strokeColor=#E07A5F;fontColor=#393C56;" parent="WJG24V2qsXTOzEI06b3e-68" vertex="1">
          <mxGeometry x="30" width="180" height="30" as="geometry">
            <mxRectangle width="180" height="30" as="alternateBounds" />
          </mxGeometry>
        </mxCell>
        <mxCell id="WJG24V2qsXTOzEI06b3e-71" style="shape=tableRow;horizontal=0;startSize=0;swimlaneHead=0;swimlaneBody=0;fillColor=none;collapsible=0;dropTarget=0;points=[[0,0.5],[1,0.5]];portConstraint=eastwest;top=0;left=0;right=0;bottom=0;rounded=1;labelBackgroundColor=none;strokeColor=#E07A5F;fontColor=#393C56;" parent="WJG24V2qsXTOzEI06b3e-64" vertex="1">
          <mxGeometry y="90" width="210" height="30" as="geometry" />
        </mxCell>
        <mxCell id="WJG24V2qsXTOzEI06b3e-72" style="shape=partialRectangle;connectable=0;fillColor=none;top=0;left=0;bottom=0;right=0;editable=1;overflow=hidden;whiteSpace=wrap;html=1;rounded=1;labelBackgroundColor=none;strokeColor=#E07A5F;fontColor=#393C56;" parent="WJG24V2qsXTOzEI06b3e-71" vertex="1">
          <mxGeometry width="30" height="30" as="geometry">
            <mxRectangle width="30" height="30" as="alternateBounds" />
          </mxGeometry>
        </mxCell>
        <mxCell id="WJG24V2qsXTOzEI06b3e-73" value="pemesan : string" style="shape=partialRectangle;connectable=0;fillColor=none;top=0;left=0;bottom=0;right=0;align=left;spacingLeft=6;overflow=hidden;whiteSpace=wrap;html=1;rounded=1;labelBackgroundColor=none;strokeColor=#E07A5F;fontColor=#393C56;" parent="WJG24V2qsXTOzEI06b3e-71" vertex="1">
          <mxGeometry x="30" width="180" height="30" as="geometry">
            <mxRectangle width="180" height="30" as="alternateBounds" />
          </mxGeometry>
        </mxCell>
        <mxCell id="WJG24V2qsXTOzEI06b3e-74" style="shape=tableRow;horizontal=0;startSize=0;swimlaneHead=0;swimlaneBody=0;fillColor=none;collapsible=0;dropTarget=0;points=[[0,0.5],[1,0.5]];portConstraint=eastwest;top=0;left=0;right=0;bottom=0;rounded=1;labelBackgroundColor=none;strokeColor=#E07A5F;fontColor=#393C56;" parent="WJG24V2qsXTOzEI06b3e-64" vertex="1">
          <mxGeometry y="120" width="210" height="30" as="geometry" />
        </mxCell>
        <mxCell id="WJG24V2qsXTOzEI06b3e-75" style="shape=partialRectangle;connectable=0;fillColor=none;top=0;left=0;bottom=0;right=0;editable=1;overflow=hidden;whiteSpace=wrap;html=1;rounded=1;labelBackgroundColor=none;strokeColor=#E07A5F;fontColor=#393C56;" parent="WJG24V2qsXTOzEI06b3e-74" vertex="1">
          <mxGeometry width="30" height="30" as="geometry">
            <mxRectangle width="30" height="30" as="alternateBounds" />
          </mxGeometry>
        </mxCell>
        <mxCell id="WJG24V2qsXTOzEI06b3e-76" value="tanggal : date" style="shape=partialRectangle;connectable=0;fillColor=none;top=0;left=0;bottom=0;right=0;align=left;spacingLeft=6;overflow=hidden;whiteSpace=wrap;html=1;rounded=1;labelBackgroundColor=none;strokeColor=#E07A5F;fontColor=#393C56;" parent="WJG24V2qsXTOzEI06b3e-74" vertex="1">
          <mxGeometry x="30" width="180" height="30" as="geometry">
            <mxRectangle width="180" height="30" as="alternateBounds" />
          </mxGeometry>
        </mxCell>
        <mxCell id="WJG24V2qsXTOzEI06b3e-77" style="shape=tableRow;horizontal=0;startSize=0;swimlaneHead=0;swimlaneBody=0;fillColor=none;collapsible=0;dropTarget=0;points=[[0,0.5],[1,0.5]];portConstraint=eastwest;top=0;left=0;right=0;bottom=0;rounded=1;labelBackgroundColor=none;strokeColor=#E07A5F;fontColor=#393C56;" parent="WJG24V2qsXTOzEI06b3e-64" vertex="1">
          <mxGeometry y="150" width="210" height="30" as="geometry" />
        </mxCell>
        <mxCell id="WJG24V2qsXTOzEI06b3e-78" style="shape=partialRectangle;connectable=0;fillColor=none;top=0;left=0;bottom=0;right=0;editable=1;overflow=hidden;whiteSpace=wrap;html=1;rounded=1;labelBackgroundColor=none;strokeColor=#E07A5F;fontColor=#393C56;" parent="WJG24V2qsXTOzEI06b3e-77" vertex="1">
          <mxGeometry width="30" height="30" as="geometry">
            <mxRectangle width="30" height="30" as="alternateBounds" />
          </mxGeometry>
        </mxCell>
        <mxCell id="WJG24V2qsXTOzEI06b3e-79" value="unit_kerja : string" style="shape=partialRectangle;connectable=0;fillColor=none;top=0;left=0;bottom=0;right=0;align=left;spacingLeft=6;overflow=hidden;whiteSpace=wrap;html=1;rounded=1;labelBackgroundColor=none;strokeColor=#E07A5F;fontColor=#393C56;" parent="WJG24V2qsXTOzEI06b3e-77" vertex="1">
          <mxGeometry x="30" width="180" height="30" as="geometry">
            <mxRectangle width="180" height="30" as="alternateBounds" />
          </mxGeometry>
        </mxCell>
        <mxCell id="WJG24V2qsXTOzEI06b3e-80" style="shape=tableRow;horizontal=0;startSize=0;swimlaneHead=0;swimlaneBody=0;fillColor=none;collapsible=0;dropTarget=0;points=[[0,0.5],[1,0.5]];portConstraint=eastwest;top=0;left=0;right=0;bottom=0;rounded=1;labelBackgroundColor=none;strokeColor=#E07A5F;fontColor=#393C56;" parent="WJG24V2qsXTOzEI06b3e-64" vertex="1">
          <mxGeometry y="180" width="210" height="30" as="geometry" />
        </mxCell>
        <mxCell id="WJG24V2qsXTOzEI06b3e-81" style="shape=partialRectangle;connectable=0;fillColor=none;top=0;left=0;bottom=0;right=0;editable=1;overflow=hidden;whiteSpace=wrap;html=1;rounded=1;labelBackgroundColor=none;strokeColor=#E07A5F;fontColor=#393C56;" parent="WJG24V2qsXTOzEI06b3e-80" vertex="1">
          <mxGeometry width="30" height="30" as="geometry">
            <mxRectangle width="30" height="30" as="alternateBounds" />
          </mxGeometry>
        </mxCell>
        <mxCell id="WJG24V2qsXTOzEI06b3e-82" value="batas_waktu : date" style="shape=partialRectangle;connectable=0;fillColor=none;top=0;left=0;bottom=0;right=0;align=left;spacingLeft=6;overflow=hidden;whiteSpace=wrap;html=1;rounded=1;labelBackgroundColor=none;strokeColor=#E07A5F;fontColor=#393C56;" parent="WJG24V2qsXTOzEI06b3e-80" vertex="1">
          <mxGeometry x="30" width="180" height="30" as="geometry">
            <mxRectangle width="180" height="30" as="alternateBounds" />
          </mxGeometry>
        </mxCell>
        <mxCell id="WJG24V2qsXTOzEI06b3e-83" style="shape=tableRow;horizontal=0;startSize=0;swimlaneHead=0;swimlaneBody=0;fillColor=none;collapsible=0;dropTarget=0;points=[[0,0.5],[1,0.5]];portConstraint=eastwest;top=0;left=0;right=0;bottom=0;rounded=1;labelBackgroundColor=none;strokeColor=#E07A5F;fontColor=#393C56;" parent="WJG24V2qsXTOzEI06b3e-64" vertex="1">
          <mxGeometry y="210" width="210" height="30" as="geometry" />
        </mxCell>
        <mxCell id="WJG24V2qsXTOzEI06b3e-84" style="shape=partialRectangle;connectable=0;fillColor=none;top=0;left=0;bottom=0;right=0;editable=1;overflow=hidden;whiteSpace=wrap;html=1;rounded=1;labelBackgroundColor=none;strokeColor=#E07A5F;fontColor=#393C56;" parent="WJG24V2qsXTOzEI06b3e-83" vertex="1">
          <mxGeometry width="30" height="30" as="geometry">
            <mxRectangle width="30" height="30" as="alternateBounds" />
          </mxGeometry>
        </mxCell>
        <mxCell id="WJG24V2qsXTOzEI06b3e-85" value="disetujui : string" style="shape=partialRectangle;connectable=0;fillColor=none;top=0;left=0;bottom=0;right=0;align=left;spacingLeft=6;overflow=hidden;whiteSpace=wrap;html=1;rounded=1;labelBackgroundColor=none;strokeColor=#E07A5F;fontColor=#393C56;" parent="WJG24V2qsXTOzEI06b3e-83" vertex="1">
          <mxGeometry x="30" width="180" height="30" as="geometry">
            <mxRectangle width="180" height="30" as="alternateBounds" />
          </mxGeometry>
        </mxCell>
        <mxCell id="WJG24V2qsXTOzEI06b3e-86" style="shape=tableRow;horizontal=0;startSize=0;swimlaneHead=0;swimlaneBody=0;fillColor=none;collapsible=0;dropTarget=0;points=[[0,0.5],[1,0.5]];portConstraint=eastwest;top=0;left=0;right=0;bottom=0;rounded=1;labelBackgroundColor=none;strokeColor=#E07A5F;fontColor=#393C56;" parent="WJG24V2qsXTOzEI06b3e-64" vertex="1">
          <mxGeometry y="240" width="210" height="30" as="geometry" />
        </mxCell>
        <mxCell id="WJG24V2qsXTOzEI06b3e-87" style="shape=partialRectangle;connectable=0;fillColor=none;top=0;left=0;bottom=0;right=0;editable=1;overflow=hidden;whiteSpace=wrap;html=1;rounded=1;labelBackgroundColor=none;strokeColor=#E07A5F;fontColor=#393C56;" parent="WJG24V2qsXTOzEI06b3e-86" vertex="1">
          <mxGeometry width="30" height="30" as="geometry">
            <mxRectangle width="30" height="30" as="alternateBounds" />
          </mxGeometry>
        </mxCell>
        <mxCell id="WJG24V2qsXTOzEI06b3e-88" value="no_pembebanan : int" style="shape=partialRectangle;connectable=0;fillColor=none;top=0;left=0;bottom=0;right=0;align=left;spacingLeft=6;overflow=hidden;whiteSpace=wrap;html=1;rounded=1;labelBackgroundColor=none;strokeColor=#E07A5F;fontColor=#393C56;" parent="WJG24V2qsXTOzEI06b3e-86" vertex="1">
          <mxGeometry x="30" width="180" height="30" as="geometry">
            <mxRectangle width="180" height="30" as="alternateBounds" />
          </mxGeometry>
        </mxCell>
        <mxCell id="wED5-wKonVYn6I1fytbZ-1" style="shape=tableRow;horizontal=0;startSize=0;swimlaneHead=0;swimlaneBody=0;fillColor=none;collapsible=0;dropTarget=0;points=[[0,0.5],[1,0.5]];portConstraint=eastwest;top=0;left=0;right=0;bottom=0;rounded=1;labelBackgroundColor=none;strokeColor=#E07A5F;fontColor=#393C56;" parent="WJG24V2qsXTOzEI06b3e-64" vertex="1">
          <mxGeometry y="270" width="210" height="30" as="geometry" />
        </mxCell>
        <mxCell id="wED5-wKonVYn6I1fytbZ-2" style="shape=partialRectangle;connectable=0;fillColor=none;top=0;left=0;bottom=0;right=0;editable=1;overflow=hidden;whiteSpace=wrap;html=1;rounded=1;labelBackgroundColor=none;strokeColor=#E07A5F;fontColor=#393C56;" parent="wED5-wKonVYn6I1fytbZ-1" vertex="1">
          <mxGeometry width="30" height="30" as="geometry">
            <mxRectangle width="30" height="30" as="alternateBounds" />
          </mxGeometry>
        </mxCell>
        <mxCell id="wED5-wKonVYn6I1fytbZ-3" value="jumlah_satuan : int" style="shape=partialRectangle;connectable=0;fillColor=none;top=0;left=0;bottom=0;right=0;align=left;spacingLeft=6;overflow=hidden;whiteSpace=wrap;html=1;rounded=1;labelBackgroundColor=none;strokeColor=#E07A5F;fontColor=#393C56;" parent="wED5-wKonVYn6I1fytbZ-1" vertex="1">
          <mxGeometry x="30" width="180" height="30" as="geometry">
            <mxRectangle width="180" height="30" as="alternateBounds" />
          </mxGeometry>
        </mxCell>
        <mxCell id="WJG24V2qsXTOzEI06b3e-89" style="shape=tableRow;horizontal=0;startSize=0;swimlaneHead=0;swimlaneBody=0;fillColor=none;collapsible=0;dropTarget=0;points=[[0,0.5],[1,0.5]];portConstraint=eastwest;top=0;left=0;right=0;bottom=0;rounded=1;labelBackgroundColor=none;strokeColor=#E07A5F;fontColor=#393C56;" parent="WJG24V2qsXTOzEI06b3e-64" vertex="1">
          <mxGeometry y="300" width="210" height="30" as="geometry" />
        </mxCell>
        <mxCell id="WJG24V2qsXTOzEI06b3e-90" value="FK" style="shape=partialRectangle;connectable=0;fillColor=none;top=0;left=0;bottom=0;right=0;editable=1;overflow=hidden;whiteSpace=wrap;html=1;rounded=1;labelBackgroundColor=none;strokeColor=#E07A5F;fontColor=#393C56;" parent="WJG24V2qsXTOzEI06b3e-89" vertex="1">
          <mxGeometry width="30" height="30" as="geometry">
            <mxRectangle width="30" height="30" as="alternateBounds" />
          </mxGeometry>
        </mxCell>
        <mxCell id="WJG24V2qsXTOzEI06b3e-91" value="nama_barang_ukuran : string" style="shape=partialRectangle;connectable=0;fillColor=none;top=0;left=0;bottom=0;right=0;align=left;spacingLeft=6;overflow=hidden;whiteSpace=wrap;html=1;rounded=1;labelBackgroundColor=none;strokeColor=#E07A5F;fontColor=#393C56;" parent="WJG24V2qsXTOzEI06b3e-89" vertex="1">
          <mxGeometry x="30" width="180" height="30" as="geometry">
            <mxRectangle width="180" height="30" as="alternateBounds" />
          </mxGeometry>
        </mxCell>
        <mxCell id="OcmD5igsIo7PyZ8lQMUF-1" style="shape=tableRow;horizontal=0;startSize=0;swimlaneHead=0;swimlaneBody=0;fillColor=none;collapsible=0;dropTarget=0;points=[[0,0.5],[1,0.5]];portConstraint=eastwest;top=0;left=0;right=0;bottom=0;rounded=1;labelBackgroundColor=none;strokeColor=#E07A5F;fontColor=#393C56;" parent="WJG24V2qsXTOzEI06b3e-64" vertex="1">
          <mxGeometry y="330" width="210" height="30" as="geometry" />
        </mxCell>
        <mxCell id="OcmD5igsIo7PyZ8lQMUF-2" style="shape=partialRectangle;connectable=0;fillColor=none;top=0;left=0;bottom=0;right=0;editable=1;overflow=hidden;whiteSpace=wrap;html=1;rounded=1;labelBackgroundColor=none;strokeColor=#E07A5F;fontColor=#393C56;" parent="OcmD5igsIo7PyZ8lQMUF-1" vertex="1">
          <mxGeometry width="30" height="30" as="geometry">
            <mxRectangle width="30" height="30" as="alternateBounds" />
          </mxGeometry>
        </mxCell>
        <mxCell id="OcmD5igsIo7PyZ8lQMUF-3" value="no_barang : int" style="shape=partialRectangle;connectable=0;fillColor=none;top=0;left=0;bottom=0;right=0;align=left;spacingLeft=6;overflow=hidden;whiteSpace=wrap;html=1;rounded=1;labelBackgroundColor=none;strokeColor=#E07A5F;fontColor=#393C56;" parent="OcmD5igsIo7PyZ8lQMUF-1" vertex="1">
          <mxGeometry x="30" width="180" height="30" as="geometry">
            <mxRectangle width="180" height="30" as="alternateBounds" />
          </mxGeometry>
        </mxCell>
        <mxCell id="OcmD5igsIo7PyZ8lQMUF-4" style="shape=tableRow;horizontal=0;startSize=0;swimlaneHead=0;swimlaneBody=0;fillColor=none;collapsible=0;dropTarget=0;points=[[0,0.5],[1,0.5]];portConstraint=eastwest;top=0;left=0;right=0;bottom=0;rounded=1;labelBackgroundColor=none;strokeColor=#E07A5F;fontColor=#393C56;" parent="WJG24V2qsXTOzEI06b3e-64" vertex="1">
          <mxGeometry y="360" width="210" height="30" as="geometry" />
        </mxCell>
        <mxCell id="OcmD5igsIo7PyZ8lQMUF-5" style="shape=partialRectangle;connectable=0;fillColor=none;top=0;left=0;bottom=0;right=0;editable=1;overflow=hidden;whiteSpace=wrap;html=1;rounded=1;labelBackgroundColor=none;strokeColor=#E07A5F;fontColor=#393C56;" parent="OcmD5igsIo7PyZ8lQMUF-4" vertex="1">
          <mxGeometry width="30" height="30" as="geometry">
            <mxRectangle width="30" height="30" as="alternateBounds" />
          </mxGeometry>
        </mxCell>
        <mxCell id="OcmD5igsIo7PyZ8lQMUF-6" value="no_gambar : int" style="shape=partialRectangle;connectable=0;fillColor=none;top=0;left=0;bottom=0;right=0;align=left;spacingLeft=6;overflow=hidden;whiteSpace=wrap;html=1;rounded=1;labelBackgroundColor=none;strokeColor=#E07A5F;fontColor=#393C56;" parent="OcmD5igsIo7PyZ8lQMUF-4" vertex="1">
          <mxGeometry x="30" width="180" height="30" as="geometry">
            <mxRectangle width="180" height="30" as="alternateBounds" />
          </mxGeometry>
        </mxCell>
        <mxCell id="OcmD5igsIo7PyZ8lQMUF-22" style="shape=tableRow;horizontal=0;startSize=0;swimlaneHead=0;swimlaneBody=0;fillColor=none;collapsible=0;dropTarget=0;points=[[0,0.5],[1,0.5]];portConstraint=eastwest;top=0;left=0;right=0;bottom=0;rounded=1;labelBackgroundColor=none;strokeColor=#E07A5F;fontColor=#393C56;" parent="WJG24V2qsXTOzEI06b3e-64" vertex="1">
          <mxGeometry y="390" width="210" height="30" as="geometry" />
        </mxCell>
        <mxCell id="OcmD5igsIo7PyZ8lQMUF-23" style="shape=partialRectangle;connectable=0;fillColor=none;top=0;left=0;bottom=0;right=0;editable=1;overflow=hidden;whiteSpace=wrap;html=1;rounded=1;labelBackgroundColor=none;strokeColor=#E07A5F;fontColor=#393C56;" parent="OcmD5igsIo7PyZ8lQMUF-22" vertex="1">
          <mxGeometry width="30" height="30" as="geometry">
            <mxRectangle width="30" height="30" as="alternateBounds" />
          </mxGeometry>
        </mxCell>
        <mxCell id="OcmD5igsIo7PyZ8lQMUF-24" value="tgl_penerima : date" style="shape=partialRectangle;connectable=0;fillColor=none;top=0;left=0;bottom=0;right=0;align=left;spacingLeft=6;overflow=hidden;whiteSpace=wrap;html=1;rounded=1;labelBackgroundColor=none;strokeColor=#E07A5F;fontColor=#393C56;" parent="OcmD5igsIo7PyZ8lQMUF-22" vertex="1">
          <mxGeometry x="30" width="180" height="30" as="geometry">
            <mxRectangle width="180" height="30" as="alternateBounds" />
          </mxGeometry>
        </mxCell>
        <mxCell id="OcmD5igsIo7PyZ8lQMUF-19" style="shape=tableRow;horizontal=0;startSize=0;swimlaneHead=0;swimlaneBody=0;fillColor=none;collapsible=0;dropTarget=0;points=[[0,0.5],[1,0.5]];portConstraint=eastwest;top=0;left=0;right=0;bottom=0;rounded=1;labelBackgroundColor=none;strokeColor=#E07A5F;fontColor=#393C56;" parent="WJG24V2qsXTOzEI06b3e-64" vertex="1">
          <mxGeometry y="420" width="210" height="30" as="geometry" />
        </mxCell>
        <mxCell id="OcmD5igsIo7PyZ8lQMUF-20" style="shape=partialRectangle;connectable=0;fillColor=none;top=0;left=0;bottom=0;right=0;editable=1;overflow=hidden;whiteSpace=wrap;html=1;rounded=1;labelBackgroundColor=none;strokeColor=#E07A5F;fontColor=#393C56;" parent="OcmD5igsIo7PyZ8lQMUF-19" vertex="1">
          <mxGeometry width="30" height="30" as="geometry">
            <mxRectangle width="30" height="30" as="alternateBounds" />
          </mxGeometry>
        </mxCell>
        <mxCell id="OcmD5igsIo7PyZ8lQMUF-21" value="nama_paraf_penerima : string" style="shape=partialRectangle;connectable=0;fillColor=none;top=0;left=0;bottom=0;right=0;align=left;spacingLeft=6;overflow=hidden;whiteSpace=wrap;html=1;rounded=1;labelBackgroundColor=none;strokeColor=#E07A5F;fontColor=#393C56;" parent="OcmD5igsIo7PyZ8lQMUF-19" vertex="1">
          <mxGeometry x="30" width="180" height="30" as="geometry">
            <mxRectangle width="180" height="30" as="alternateBounds" />
          </mxGeometry>
        </mxCell>
        <mxCell id="OcmD5igsIo7PyZ8lQMUF-16" style="shape=tableRow;horizontal=0;startSize=0;swimlaneHead=0;swimlaneBody=0;fillColor=none;collapsible=0;dropTarget=0;points=[[0,0.5],[1,0.5]];portConstraint=eastwest;top=0;left=0;right=0;bottom=0;rounded=1;labelBackgroundColor=none;strokeColor=#E07A5F;fontColor=#393C56;" parent="WJG24V2qsXTOzEI06b3e-64" vertex="1">
          <mxGeometry y="450" width="210" height="30" as="geometry" />
        </mxCell>
        <mxCell id="OcmD5igsIo7PyZ8lQMUF-17" style="shape=partialRectangle;connectable=0;fillColor=none;top=0;left=0;bottom=0;right=0;editable=1;overflow=hidden;whiteSpace=wrap;html=1;rounded=1;labelBackgroundColor=none;strokeColor=#E07A5F;fontColor=#393C56;" parent="OcmD5igsIo7PyZ8lQMUF-16" vertex="1">
          <mxGeometry width="30" height="30" as="geometry">
            <mxRectangle width="30" height="30" as="alternateBounds" />
          </mxGeometry>
        </mxCell>
        <mxCell id="OcmD5igsIo7PyZ8lQMUF-18" value="berat_barang : int" style="shape=partialRectangle;connectable=0;fillColor=none;top=0;left=0;bottom=0;right=0;align=left;spacingLeft=6;overflow=hidden;whiteSpace=wrap;html=1;rounded=1;labelBackgroundColor=none;strokeColor=#E07A5F;fontColor=#393C56;" parent="OcmD5igsIo7PyZ8lQMUF-16" vertex="1">
          <mxGeometry x="30" width="180" height="30" as="geometry">
            <mxRectangle width="180" height="30" as="alternateBounds" />
          </mxGeometry>
        </mxCell>
        <mxCell id="OcmD5igsIo7PyZ8lQMUF-13" style="shape=tableRow;horizontal=0;startSize=0;swimlaneHead=0;swimlaneBody=0;fillColor=none;collapsible=0;dropTarget=0;points=[[0,0.5],[1,0.5]];portConstraint=eastwest;top=0;left=0;right=0;bottom=0;rounded=1;labelBackgroundColor=none;strokeColor=#E07A5F;fontColor=#393C56;" parent="WJG24V2qsXTOzEI06b3e-64" vertex="1">
          <mxGeometry y="480" width="210" height="30" as="geometry" />
        </mxCell>
        <mxCell id="OcmD5igsIo7PyZ8lQMUF-14" style="shape=partialRectangle;connectable=0;fillColor=none;top=0;left=0;bottom=0;right=0;editable=1;overflow=hidden;whiteSpace=wrap;html=1;rounded=1;labelBackgroundColor=none;strokeColor=#E07A5F;fontColor=#393C56;" parent="OcmD5igsIo7PyZ8lQMUF-13" vertex="1">
          <mxGeometry width="30" height="30" as="geometry">
            <mxRectangle width="30" height="30" as="alternateBounds" />
          </mxGeometry>
        </mxCell>
        <mxCell id="OcmD5igsIo7PyZ8lQMUF-15" value="tgl_pembelian : date" style="shape=partialRectangle;connectable=0;fillColor=none;top=0;left=0;bottom=0;right=0;align=left;spacingLeft=6;overflow=hidden;whiteSpace=wrap;html=1;rounded=1;labelBackgroundColor=none;strokeColor=#E07A5F;fontColor=#393C56;" parent="OcmD5igsIo7PyZ8lQMUF-13" vertex="1">
          <mxGeometry x="30" width="180" height="30" as="geometry">
            <mxRectangle width="180" height="30" as="alternateBounds" />
          </mxGeometry>
        </mxCell>
        <mxCell id="OcmD5igsIo7PyZ8lQMUF-10" style="shape=tableRow;horizontal=0;startSize=0;swimlaneHead=0;swimlaneBody=0;fillColor=none;collapsible=0;dropTarget=0;points=[[0,0.5],[1,0.5]];portConstraint=eastwest;top=0;left=0;right=0;bottom=0;rounded=1;labelBackgroundColor=none;strokeColor=#E07A5F;fontColor=#393C56;" parent="WJG24V2qsXTOzEI06b3e-64" vertex="1">
          <mxGeometry y="510" width="210" height="30" as="geometry" />
        </mxCell>
        <mxCell id="OcmD5igsIo7PyZ8lQMUF-11" style="shape=partialRectangle;connectable=0;fillColor=none;top=0;left=0;bottom=0;right=0;editable=1;overflow=hidden;whiteSpace=wrap;html=1;rounded=1;labelBackgroundColor=none;strokeColor=#E07A5F;fontColor=#393C56;" parent="OcmD5igsIo7PyZ8lQMUF-10" vertex="1">
          <mxGeometry width="30" height="30" as="geometry">
            <mxRectangle width="30" height="30" as="alternateBounds" />
          </mxGeometry>
        </mxCell>
        <mxCell id="OcmD5igsIo7PyZ8lQMUF-12" value="tgl_pesanan : date" style="shape=partialRectangle;connectable=0;fillColor=none;top=0;left=0;bottom=0;right=0;align=left;spacingLeft=6;overflow=hidden;whiteSpace=wrap;html=1;rounded=1;labelBackgroundColor=none;strokeColor=#E07A5F;fontColor=#393C56;" parent="OcmD5igsIo7PyZ8lQMUF-10" vertex="1">
          <mxGeometry x="30" width="180" height="30" as="geometry">
            <mxRectangle width="180" height="30" as="alternateBounds" />
          </mxGeometry>
        </mxCell>
        <mxCell id="OcmD5igsIo7PyZ8lQMUF-25" style="shape=tableRow;horizontal=0;startSize=0;swimlaneHead=0;swimlaneBody=0;fillColor=none;collapsible=0;dropTarget=0;points=[[0,0.5],[1,0.5]];portConstraint=eastwest;top=0;left=0;right=0;bottom=0;rounded=1;labelBackgroundColor=none;strokeColor=#E07A5F;fontColor=#393C56;" parent="WJG24V2qsXTOzEI06b3e-64" vertex="1">
          <mxGeometry y="540" width="210" height="30" as="geometry" />
        </mxCell>
        <mxCell id="OcmD5igsIo7PyZ8lQMUF-26" style="shape=partialRectangle;connectable=0;fillColor=none;top=0;left=0;bottom=0;right=0;editable=1;overflow=hidden;whiteSpace=wrap;html=1;rounded=1;labelBackgroundColor=none;strokeColor=#E07A5F;fontColor=#393C56;" parent="OcmD5igsIo7PyZ8lQMUF-25" vertex="1">
          <mxGeometry width="30" height="30" as="geometry">
            <mxRectangle width="30" height="30" as="alternateBounds" />
          </mxGeometry>
        </mxCell>
        <mxCell id="OcmD5igsIo7PyZ8lQMUF-27" value="nama_paraf_pelaksana : string" style="shape=partialRectangle;connectable=0;fillColor=none;top=0;left=0;bottom=0;right=0;align=left;spacingLeft=6;overflow=hidden;whiteSpace=wrap;html=1;rounded=1;labelBackgroundColor=none;strokeColor=#E07A5F;fontColor=#393C56;" parent="OcmD5igsIo7PyZ8lQMUF-25" vertex="1">
          <mxGeometry x="30" width="180" height="30" as="geometry">
            <mxRectangle width="180" height="30" as="alternateBounds" />
          </mxGeometry>
        </mxCell>
        <mxCell id="WJG24V2qsXTOzEI06b3e-92" value="Form Proses" style="shape=table;startSize=30;container=1;collapsible=1;childLayout=tableLayout;fixedRows=1;rowLines=0;fontStyle=1;align=center;resizeLast=1;html=1;rounded=1;labelBackgroundColor=none;fillColor=#F2CC8F;strokeColor=#E07A5F;fontColor=#393C56;" parent="1" vertex="1">
          <mxGeometry x="610" y="-550" width="180" height="330" as="geometry">
            <mxRectangle x="610" y="-550" width="90" height="30" as="alternateBounds" />
          </mxGeometry>
        </mxCell>
        <mxCell id="WJG24V2qsXTOzEI06b3e-93" value="" style="shape=tableRow;horizontal=0;startSize=0;swimlaneHead=0;swimlaneBody=0;fillColor=none;collapsible=0;dropTarget=0;points=[[0,0.5],[1,0.5]];portConstraint=eastwest;top=0;left=0;right=0;bottom=1;rounded=1;labelBackgroundColor=none;strokeColor=#E07A5F;fontColor=#393C56;" parent="WJG24V2qsXTOzEI06b3e-92" vertex="1">
          <mxGeometry y="30" width="180" height="30" as="geometry" />
        </mxCell>
        <mxCell id="WJG24V2qsXTOzEI06b3e-94" value="PK" style="shape=partialRectangle;connectable=0;fillColor=none;top=0;left=0;bottom=0;right=0;fontStyle=1;overflow=hidden;whiteSpace=wrap;html=1;rounded=1;labelBackgroundColor=none;strokeColor=#E07A5F;fontColor=#393C56;" parent="WJG24V2qsXTOzEI06b3e-93" vertex="1">
          <mxGeometry width="30" height="30" as="geometry">
            <mxRectangle width="30" height="30" as="alternateBounds" />
          </mxGeometry>
        </mxCell>
        <mxCell id="WJG24V2qsXTOzEI06b3e-95" value="id_prosesstart : int" style="shape=partialRectangle;connectable=0;fillColor=none;top=0;left=0;bottom=0;right=0;align=left;spacingLeft=6;fontStyle=5;overflow=hidden;whiteSpace=wrap;html=1;rounded=1;labelBackgroundColor=none;strokeColor=#E07A5F;fontColor=#393C56;" parent="WJG24V2qsXTOzEI06b3e-93" vertex="1">
          <mxGeometry x="30" width="150" height="30" as="geometry">
            <mxRectangle width="150" height="30" as="alternateBounds" />
          </mxGeometry>
        </mxCell>
        <mxCell id="WJG24V2qsXTOzEI06b3e-96" value="" style="shape=tableRow;horizontal=0;startSize=0;swimlaneHead=0;swimlaneBody=0;fillColor=none;collapsible=0;dropTarget=0;points=[[0,0.5],[1,0.5]];portConstraint=eastwest;top=0;left=0;right=0;bottom=0;rounded=1;labelBackgroundColor=none;strokeColor=#E07A5F;fontColor=#393C56;" parent="WJG24V2qsXTOzEI06b3e-92" vertex="1">
          <mxGeometry y="60" width="180" height="30" as="geometry" />
        </mxCell>
        <mxCell id="WJG24V2qsXTOzEI06b3e-97" value="FK" style="shape=partialRectangle;connectable=0;fillColor=none;top=0;left=0;bottom=0;right=0;editable=1;overflow=hidden;whiteSpace=wrap;html=1;rounded=1;labelBackgroundColor=none;strokeColor=#E07A5F;fontColor=#393C56;" parent="WJG24V2qsXTOzEI06b3e-96" vertex="1">
          <mxGeometry width="30" height="30" as="geometry">
            <mxRectangle width="30" height="30" as="alternateBounds" />
          </mxGeometry>
        </mxCell>
        <mxCell id="WJG24V2qsXTOzEI06b3e-98" value="id_stoklogistik : int" style="shape=partialRectangle;connectable=0;fillColor=none;top=0;left=0;bottom=0;right=0;align=left;spacingLeft=6;overflow=hidden;whiteSpace=wrap;html=1;rounded=1;labelBackgroundColor=none;strokeColor=#E07A5F;fontColor=#393C56;" parent="WJG24V2qsXTOzEI06b3e-96" vertex="1">
          <mxGeometry x="30" width="150" height="30" as="geometry">
            <mxRectangle width="150" height="30" as="alternateBounds" />
          </mxGeometry>
        </mxCell>
        <mxCell id="WJG24V2qsXTOzEI06b3e-99" style="shape=tableRow;horizontal=0;startSize=0;swimlaneHead=0;swimlaneBody=0;fillColor=none;collapsible=0;dropTarget=0;points=[[0,0.5],[1,0.5]];portConstraint=eastwest;top=0;left=0;right=0;bottom=0;rounded=1;labelBackgroundColor=none;strokeColor=#E07A5F;fontColor=#393C56;" parent="WJG24V2qsXTOzEI06b3e-92" vertex="1">
          <mxGeometry y="90" width="180" height="30" as="geometry" />
        </mxCell>
        <mxCell id="WJG24V2qsXTOzEI06b3e-100" value="FK" style="shape=partialRectangle;connectable=0;fillColor=none;top=0;left=0;bottom=0;right=0;editable=1;overflow=hidden;whiteSpace=wrap;html=1;rounded=1;labelBackgroundColor=none;strokeColor=#E07A5F;fontColor=#393C56;" parent="WJG24V2qsXTOzEI06b3e-99" vertex="1">
          <mxGeometry width="30" height="30" as="geometry">
            <mxRectangle width="30" height="30" as="alternateBounds" />
          </mxGeometry>
        </mxCell>
        <mxCell id="WJG24V2qsXTOzEI06b3e-101" value="id_orderlog : int" style="shape=partialRectangle;connectable=0;fillColor=none;top=0;left=0;bottom=0;right=0;align=left;spacingLeft=6;overflow=hidden;whiteSpace=wrap;html=1;rounded=1;labelBackgroundColor=none;strokeColor=#E07A5F;fontColor=#393C56;" parent="WJG24V2qsXTOzEI06b3e-99" vertex="1">
          <mxGeometry x="30" width="150" height="30" as="geometry">
            <mxRectangle width="150" height="30" as="alternateBounds" />
          </mxGeometry>
        </mxCell>
        <mxCell id="WJG24V2qsXTOzEI06b3e-102" style="shape=tableRow;horizontal=0;startSize=0;swimlaneHead=0;swimlaneBody=0;fillColor=none;collapsible=0;dropTarget=0;points=[[0,0.5],[1,0.5]];portConstraint=eastwest;top=0;left=0;right=0;bottom=0;rounded=1;labelBackgroundColor=none;strokeColor=#E07A5F;fontColor=#393C56;" parent="WJG24V2qsXTOzEI06b3e-92" vertex="1">
          <mxGeometry y="120" width="180" height="30" as="geometry" />
        </mxCell>
        <mxCell id="WJG24V2qsXTOzEI06b3e-103" value="FK" style="shape=partialRectangle;connectable=0;fillColor=none;top=0;left=0;bottom=0;right=0;editable=1;overflow=hidden;whiteSpace=wrap;html=1;rounded=1;labelBackgroundColor=none;strokeColor=#E07A5F;fontColor=#393C56;" parent="WJG24V2qsXTOzEI06b3e-102" vertex="1">
          <mxGeometry width="30" height="30" as="geometry">
            <mxRectangle width="30" height="30" as="alternateBounds" />
          </mxGeometry>
        </mxCell>
        <mxCell id="WJG24V2qsXTOzEI06b3e-104" value="id_mesin : int" style="shape=partialRectangle;connectable=0;fillColor=none;top=0;left=0;bottom=0;right=0;align=left;spacingLeft=6;overflow=hidden;whiteSpace=wrap;html=1;rounded=1;labelBackgroundColor=none;strokeColor=#E07A5F;fontColor=#393C56;" parent="WJG24V2qsXTOzEI06b3e-102" vertex="1">
          <mxGeometry x="30" width="150" height="30" as="geometry">
            <mxRectangle width="150" height="30" as="alternateBounds" />
          </mxGeometry>
        </mxCell>
        <mxCell id="OcmD5igsIo7PyZ8lQMUF-35" style="shape=tableRow;horizontal=0;startSize=0;swimlaneHead=0;swimlaneBody=0;fillColor=none;collapsible=0;dropTarget=0;points=[[0,0.5],[1,0.5]];portConstraint=eastwest;top=0;left=0;right=0;bottom=0;rounded=1;labelBackgroundColor=none;strokeColor=#E07A5F;fontColor=#393C56;" parent="WJG24V2qsXTOzEI06b3e-92" vertex="1">
          <mxGeometry y="150" width="180" height="30" as="geometry" />
        </mxCell>
        <mxCell id="OcmD5igsIo7PyZ8lQMUF-36" style="shape=partialRectangle;connectable=0;fillColor=none;top=0;left=0;bottom=0;right=0;editable=1;overflow=hidden;whiteSpace=wrap;html=1;rounded=1;labelBackgroundColor=none;strokeColor=#E07A5F;fontColor=#393C56;" parent="OcmD5igsIo7PyZ8lQMUF-35" vertex="1">
          <mxGeometry width="30" height="30" as="geometry">
            <mxRectangle width="30" height="30" as="alternateBounds" />
          </mxGeometry>
        </mxCell>
        <mxCell id="OcmD5igsIo7PyZ8lQMUF-37" value="tgl_pembuatan : date" style="shape=partialRectangle;connectable=0;fillColor=none;top=0;left=0;bottom=0;right=0;align=left;spacingLeft=6;overflow=hidden;whiteSpace=wrap;html=1;rounded=1;labelBackgroundColor=none;strokeColor=#E07A5F;fontColor=#393C56;" parent="OcmD5igsIo7PyZ8lQMUF-35" vertex="1">
          <mxGeometry x="30" width="150" height="30" as="geometry">
            <mxRectangle width="150" height="30" as="alternateBounds" />
          </mxGeometry>
        </mxCell>
        <mxCell id="OcmD5igsIo7PyZ8lQMUF-38" style="shape=tableRow;horizontal=0;startSize=0;swimlaneHead=0;swimlaneBody=0;fillColor=none;collapsible=0;dropTarget=0;points=[[0,0.5],[1,0.5]];portConstraint=eastwest;top=0;left=0;right=0;bottom=0;rounded=1;labelBackgroundColor=none;strokeColor=#E07A5F;fontColor=#393C56;" parent="WJG24V2qsXTOzEI06b3e-92" vertex="1">
          <mxGeometry y="180" width="180" height="30" as="geometry" />
        </mxCell>
        <mxCell id="OcmD5igsIo7PyZ8lQMUF-39" style="shape=partialRectangle;connectable=0;fillColor=none;top=0;left=0;bottom=0;right=0;editable=1;overflow=hidden;whiteSpace=wrap;html=1;rounded=1;labelBackgroundColor=none;strokeColor=#E07A5F;fontColor=#393C56;" parent="OcmD5igsIo7PyZ8lQMUF-38" vertex="1">
          <mxGeometry width="30" height="30" as="geometry">
            <mxRectangle width="30" height="30" as="alternateBounds" />
          </mxGeometry>
        </mxCell>
        <mxCell id="OcmD5igsIo7PyZ8lQMUF-40" value="nama_pembuat : string" style="shape=partialRectangle;connectable=0;fillColor=none;top=0;left=0;bottom=0;right=0;align=left;spacingLeft=6;overflow=hidden;whiteSpace=wrap;html=1;rounded=1;labelBackgroundColor=none;strokeColor=#E07A5F;fontColor=#393C56;" parent="OcmD5igsIo7PyZ8lQMUF-38" vertex="1">
          <mxGeometry x="30" width="150" height="30" as="geometry">
            <mxRectangle width="150" height="30" as="alternateBounds" />
          </mxGeometry>
        </mxCell>
        <mxCell id="OcmD5igsIo7PyZ8lQMUF-41" style="shape=tableRow;horizontal=0;startSize=0;swimlaneHead=0;swimlaneBody=0;fillColor=none;collapsible=0;dropTarget=0;points=[[0,0.5],[1,0.5]];portConstraint=eastwest;top=0;left=0;right=0;bottom=0;rounded=1;labelBackgroundColor=none;strokeColor=#E07A5F;fontColor=#393C56;" parent="WJG24V2qsXTOzEI06b3e-92" vertex="1">
          <mxGeometry y="210" width="180" height="30" as="geometry" />
        </mxCell>
        <mxCell id="OcmD5igsIo7PyZ8lQMUF-42" style="shape=partialRectangle;connectable=0;fillColor=none;top=0;left=0;bottom=0;right=0;editable=1;overflow=hidden;whiteSpace=wrap;html=1;rounded=1;labelBackgroundColor=none;strokeColor=#E07A5F;fontColor=#393C56;" parent="OcmD5igsIo7PyZ8lQMUF-41" vertex="1">
          <mxGeometry width="30" height="30" as="geometry">
            <mxRectangle width="30" height="30" as="alternateBounds" />
          </mxGeometry>
        </mxCell>
        <mxCell id="OcmD5igsIo7PyZ8lQMUF-43" value="no_order : int" style="shape=partialRectangle;connectable=0;fillColor=none;top=0;left=0;bottom=0;right=0;align=left;spacingLeft=6;overflow=hidden;whiteSpace=wrap;html=1;rounded=1;labelBackgroundColor=none;strokeColor=#E07A5F;fontColor=#393C56;" parent="OcmD5igsIo7PyZ8lQMUF-41" vertex="1">
          <mxGeometry x="30" width="150" height="30" as="geometry">
            <mxRectangle width="150" height="30" as="alternateBounds" />
          </mxGeometry>
        </mxCell>
        <mxCell id="OcmD5igsIo7PyZ8lQMUF-47" style="shape=tableRow;horizontal=0;startSize=0;swimlaneHead=0;swimlaneBody=0;fillColor=none;collapsible=0;dropTarget=0;points=[[0,0.5],[1,0.5]];portConstraint=eastwest;top=0;left=0;right=0;bottom=0;rounded=1;labelBackgroundColor=none;strokeColor=#E07A5F;fontColor=#393C56;" parent="WJG24V2qsXTOzEI06b3e-92" vertex="1">
          <mxGeometry y="240" width="180" height="30" as="geometry" />
        </mxCell>
        <mxCell id="OcmD5igsIo7PyZ8lQMUF-48" style="shape=partialRectangle;connectable=0;fillColor=none;top=0;left=0;bottom=0;right=0;editable=1;overflow=hidden;whiteSpace=wrap;html=1;rounded=1;labelBackgroundColor=none;strokeColor=#E07A5F;fontColor=#393C56;" parent="OcmD5igsIo7PyZ8lQMUF-47" vertex="1">
          <mxGeometry width="30" height="30" as="geometry">
            <mxRectangle width="30" height="30" as="alternateBounds" />
          </mxGeometry>
        </mxCell>
        <mxCell id="OcmD5igsIo7PyZ8lQMUF-49" value="kuantitas" style="shape=partialRectangle;connectable=0;fillColor=none;top=0;left=0;bottom=0;right=0;align=left;spacingLeft=6;overflow=hidden;whiteSpace=wrap;html=1;rounded=1;labelBackgroundColor=none;strokeColor=#E07A5F;fontColor=#393C56;" parent="OcmD5igsIo7PyZ8lQMUF-47" vertex="1">
          <mxGeometry x="30" width="150" height="30" as="geometry">
            <mxRectangle width="150" height="30" as="alternateBounds" />
          </mxGeometry>
        </mxCell>
        <mxCell id="WJG24V2qsXTOzEI06b3e-105" style="shape=tableRow;horizontal=0;startSize=0;swimlaneHead=0;swimlaneBody=0;fillColor=none;collapsible=0;dropTarget=0;points=[[0,0.5],[1,0.5]];portConstraint=eastwest;top=0;left=0;right=0;bottom=0;rounded=1;labelBackgroundColor=none;strokeColor=#E07A5F;fontColor=#393C56;" parent="WJG24V2qsXTOzEI06b3e-92" vertex="1">
          <mxGeometry y="270" width="180" height="30" as="geometry" />
        </mxCell>
        <mxCell id="WJG24V2qsXTOzEI06b3e-106" style="shape=partialRectangle;connectable=0;fillColor=none;top=0;left=0;bottom=0;right=0;editable=1;overflow=hidden;whiteSpace=wrap;html=1;rounded=1;labelBackgroundColor=none;strokeColor=#E07A5F;fontColor=#393C56;" parent="WJG24V2qsXTOzEI06b3e-105" vertex="1">
          <mxGeometry width="30" height="30" as="geometry">
            <mxRectangle width="30" height="30" as="alternateBounds" />
          </mxGeometry>
        </mxCell>
        <mxCell id="WJG24V2qsXTOzEI06b3e-107" value="durasi_waktu : int" style="shape=partialRectangle;connectable=0;fillColor=none;top=0;left=0;bottom=0;right=0;align=left;spacingLeft=6;overflow=hidden;whiteSpace=wrap;html=1;rounded=1;labelBackgroundColor=none;strokeColor=#E07A5F;fontColor=#393C56;" parent="WJG24V2qsXTOzEI06b3e-105" vertex="1">
          <mxGeometry x="30" width="150" height="30" as="geometry">
            <mxRectangle width="150" height="30" as="alternateBounds" />
          </mxGeometry>
        </mxCell>
        <mxCell id="onlekJGg42OpJB_kTOi8-1" style="shape=tableRow;horizontal=0;startSize=0;swimlaneHead=0;swimlaneBody=0;fillColor=none;collapsible=0;dropTarget=0;points=[[0,0.5],[1,0.5]];portConstraint=eastwest;top=0;left=0;right=0;bottom=0;rounded=1;labelBackgroundColor=none;strokeColor=#E07A5F;fontColor=#393C56;" parent="WJG24V2qsXTOzEI06b3e-92" vertex="1">
          <mxGeometry y="300" width="180" height="30" as="geometry" />
        </mxCell>
        <mxCell id="onlekJGg42OpJB_kTOi8-2" style="shape=partialRectangle;connectable=0;fillColor=none;top=0;left=0;bottom=0;right=0;editable=1;overflow=hidden;whiteSpace=wrap;html=1;rounded=1;labelBackgroundColor=none;strokeColor=#E07A5F;fontColor=#393C56;" parent="onlekJGg42OpJB_kTOi8-1" vertex="1">
          <mxGeometry width="30" height="30" as="geometry">
            <mxRectangle width="30" height="30" as="alternateBounds" />
          </mxGeometry>
        </mxCell>
        <mxCell id="onlekJGg42OpJB_kTOi8-3" value="komponen : string" style="shape=partialRectangle;connectable=0;fillColor=none;top=0;left=0;bottom=0;right=0;align=left;spacingLeft=6;overflow=hidden;whiteSpace=wrap;html=1;rounded=1;labelBackgroundColor=none;strokeColor=#E07A5F;fontColor=#393C56;" parent="onlekJGg42OpJB_kTOi8-1" vertex="1">
          <mxGeometry x="30" width="150" height="30" as="geometry">
            <mxRectangle width="150" height="30" as="alternateBounds" />
          </mxGeometry>
        </mxCell>
        <mxCell id="WJG24V2qsXTOzEI06b3e-108" value="Stok Gudang" style="shape=table;startSize=30;container=1;collapsible=1;childLayout=tableLayout;fixedRows=1;rowLines=0;fontStyle=1;align=center;resizeLast=1;html=1;rounded=1;labelBackgroundColor=none;fillColor=#F2CC8F;strokeColor=#E07A5F;fontColor=#393C56;" parent="1" vertex="1">
          <mxGeometry x="340" y="-720" width="180" height="120.00000000000011" as="geometry">
            <mxRectangle x="490" y="440" width="110" height="30" as="alternateBounds" />
          </mxGeometry>
        </mxCell>
        <mxCell id="WJG24V2qsXTOzEI06b3e-109" value="" style="shape=tableRow;horizontal=0;startSize=0;swimlaneHead=0;swimlaneBody=0;fillColor=none;collapsible=0;dropTarget=0;points=[[0,0.5],[1,0.5]];portConstraint=eastwest;top=0;left=0;right=0;bottom=1;rounded=1;labelBackgroundColor=none;strokeColor=#E07A5F;fontColor=#393C56;" parent="WJG24V2qsXTOzEI06b3e-108" vertex="1">
          <mxGeometry y="30" width="180" height="30" as="geometry" />
        </mxCell>
        <mxCell id="WJG24V2qsXTOzEI06b3e-110" value="PK" style="shape=partialRectangle;connectable=0;fillColor=none;top=0;left=0;bottom=0;right=0;fontStyle=1;overflow=hidden;whiteSpace=wrap;html=1;rounded=1;labelBackgroundColor=none;strokeColor=#E07A5F;fontColor=#393C56;" parent="WJG24V2qsXTOzEI06b3e-109" vertex="1">
          <mxGeometry width="30" height="30" as="geometry">
            <mxRectangle width="30" height="30" as="alternateBounds" />
          </mxGeometry>
        </mxCell>
        <mxCell id="WJG24V2qsXTOzEI06b3e-111" value="&lt;b&gt;&lt;u&gt;id_stoklogistik : int&lt;/u&gt;&lt;/b&gt;" style="shape=partialRectangle;connectable=0;fillColor=none;top=0;left=0;bottom=0;right=0;align=left;spacingLeft=6;fontStyle=0;overflow=hidden;whiteSpace=wrap;html=1;rounded=1;labelBackgroundColor=none;strokeColor=#E07A5F;fontColor=#393C56;" parent="WJG24V2qsXTOzEI06b3e-109" vertex="1">
          <mxGeometry x="30" width="150" height="30" as="geometry">
            <mxRectangle width="150" height="30" as="alternateBounds" />
          </mxGeometry>
        </mxCell>
        <mxCell id="WJG24V2qsXTOzEI06b3e-112" value="" style="shape=tableRow;horizontal=0;startSize=0;swimlaneHead=0;swimlaneBody=0;fillColor=none;collapsible=0;dropTarget=0;points=[[0,0.5],[1,0.5]];portConstraint=eastwest;top=0;left=0;right=0;bottom=0;rounded=1;labelBackgroundColor=none;strokeColor=#E07A5F;fontColor=#393C56;" parent="WJG24V2qsXTOzEI06b3e-108" vertex="1">
          <mxGeometry y="60" width="180" height="30" as="geometry" />
        </mxCell>
        <mxCell id="WJG24V2qsXTOzEI06b3e-113" value="" style="shape=partialRectangle;connectable=0;fillColor=none;top=0;left=0;bottom=0;right=0;editable=1;overflow=hidden;rounded=1;labelBackgroundColor=none;strokeColor=#E07A5F;fontColor=#393C56;" parent="WJG24V2qsXTOzEI06b3e-112" vertex="1">
          <mxGeometry width="30" height="30" as="geometry">
            <mxRectangle width="30" height="30" as="alternateBounds" />
          </mxGeometry>
        </mxCell>
        <mxCell id="WJG24V2qsXTOzEI06b3e-114" value="tempat_simpan : string" style="shape=partialRectangle;connectable=0;fillColor=none;top=0;left=0;bottom=0;right=0;align=left;spacingLeft=6;overflow=hidden;rounded=1;labelBackgroundColor=none;strokeColor=#E07A5F;fontColor=#393C56;" parent="WJG24V2qsXTOzEI06b3e-112" vertex="1">
          <mxGeometry x="30" width="150" height="30" as="geometry">
            <mxRectangle width="150" height="30" as="alternateBounds" />
          </mxGeometry>
        </mxCell>
        <mxCell id="WJG24V2qsXTOzEI06b3e-115" value="" style="shape=tableRow;horizontal=0;startSize=0;swimlaneHead=0;swimlaneBody=0;fillColor=none;collapsible=0;dropTarget=0;points=[[0,0.5],[1,0.5]];portConstraint=eastwest;top=0;left=0;right=0;bottom=0;rounded=1;labelBackgroundColor=none;strokeColor=#E07A5F;fontColor=#393C56;" parent="WJG24V2qsXTOzEI06b3e-108" vertex="1">
          <mxGeometry y="90" width="180" height="30" as="geometry" />
        </mxCell>
        <mxCell id="WJG24V2qsXTOzEI06b3e-116" value="" style="shape=partialRectangle;connectable=0;fillColor=none;top=0;left=0;bottom=0;right=0;editable=1;overflow=hidden;rounded=1;labelBackgroundColor=none;strokeColor=#E07A5F;fontColor=#393C56;" parent="WJG24V2qsXTOzEI06b3e-115" vertex="1">
          <mxGeometry width="30" height="30" as="geometry">
            <mxRectangle width="30" height="30" as="alternateBounds" />
          </mxGeometry>
        </mxCell>
        <mxCell id="WJG24V2qsXTOzEI06b3e-117" value="jml_komponen : int" style="shape=partialRectangle;connectable=0;fillColor=none;top=0;left=0;bottom=0;right=0;align=left;spacingLeft=6;overflow=hidden;rounded=1;labelBackgroundColor=none;strokeColor=#E07A5F;fontColor=#393C56;" parent="WJG24V2qsXTOzEI06b3e-115" vertex="1">
          <mxGeometry x="30" width="150" height="30" as="geometry">
            <mxRectangle width="150" height="30" as="alternateBounds" />
          </mxGeometry>
        </mxCell>
        <mxCell id="WJG24V2qsXTOzEI06b3e-118" value="Mesin" style="shape=table;startSize=30;container=1;collapsible=1;childLayout=tableLayout;fixedRows=1;rowLines=0;fontStyle=1;align=center;resizeLast=1;html=1;rounded=1;labelBackgroundColor=none;fillColor=#F2CC8F;strokeColor=#E07A5F;fontColor=#393C56;" parent="1" vertex="1">
          <mxGeometry x="620" y="-140" width="180" height="120.00000000000011" as="geometry">
            <mxRectangle x="490" y="440" width="110" height="30" as="alternateBounds" />
          </mxGeometry>
        </mxCell>
        <mxCell id="WJG24V2qsXTOzEI06b3e-119" value="" style="shape=tableRow;horizontal=0;startSize=0;swimlaneHead=0;swimlaneBody=0;fillColor=none;collapsible=0;dropTarget=0;points=[[0,0.5],[1,0.5]];portConstraint=eastwest;top=0;left=0;right=0;bottom=1;rounded=1;labelBackgroundColor=none;strokeColor=#E07A5F;fontColor=#393C56;" parent="WJG24V2qsXTOzEI06b3e-118" vertex="1">
          <mxGeometry y="30" width="180" height="30" as="geometry" />
        </mxCell>
        <mxCell id="WJG24V2qsXTOzEI06b3e-120" value="PK" style="shape=partialRectangle;connectable=0;fillColor=none;top=0;left=0;bottom=0;right=0;fontStyle=1;overflow=hidden;whiteSpace=wrap;html=1;rounded=1;labelBackgroundColor=none;strokeColor=#E07A5F;fontColor=#393C56;" parent="WJG24V2qsXTOzEI06b3e-119" vertex="1">
          <mxGeometry width="30" height="30" as="geometry">
            <mxRectangle width="30" height="30" as="alternateBounds" />
          </mxGeometry>
        </mxCell>
        <mxCell id="WJG24V2qsXTOzEI06b3e-121" value="&lt;b&gt;&lt;u&gt;id_mesin : int&lt;/u&gt;&lt;/b&gt;" style="shape=partialRectangle;connectable=0;fillColor=none;top=0;left=0;bottom=0;right=0;align=left;spacingLeft=6;fontStyle=0;overflow=hidden;whiteSpace=wrap;html=1;rounded=1;labelBackgroundColor=none;strokeColor=#E07A5F;fontColor=#393C56;" parent="WJG24V2qsXTOzEI06b3e-119" vertex="1">
          <mxGeometry x="30" width="150" height="30" as="geometry">
            <mxRectangle width="150" height="30" as="alternateBounds" />
          </mxGeometry>
        </mxCell>
        <mxCell id="WJG24V2qsXTOzEI06b3e-122" value="" style="shape=tableRow;horizontal=0;startSize=0;swimlaneHead=0;swimlaneBody=0;fillColor=none;collapsible=0;dropTarget=0;points=[[0,0.5],[1,0.5]];portConstraint=eastwest;top=0;left=0;right=0;bottom=0;rounded=1;labelBackgroundColor=none;strokeColor=#E07A5F;fontColor=#393C56;" parent="WJG24V2qsXTOzEI06b3e-118" vertex="1">
          <mxGeometry y="60" width="180" height="30" as="geometry" />
        </mxCell>
        <mxCell id="WJG24V2qsXTOzEI06b3e-123" value="" style="shape=partialRectangle;connectable=0;fillColor=none;top=0;left=0;bottom=0;right=0;fontStyle=0;overflow=hidden;whiteSpace=wrap;html=1;rounded=1;labelBackgroundColor=none;strokeColor=#E07A5F;fontColor=#393C56;" parent="WJG24V2qsXTOzEI06b3e-122" vertex="1">
          <mxGeometry width="30" height="30" as="geometry">
            <mxRectangle width="30" height="30" as="alternateBounds" />
          </mxGeometry>
        </mxCell>
        <mxCell id="WJG24V2qsXTOzEI06b3e-124" value="nama_mesin : string" style="shape=partialRectangle;connectable=0;fillColor=none;top=0;left=0;bottom=0;right=0;align=left;spacingLeft=6;fontStyle=0;overflow=hidden;whiteSpace=wrap;html=1;rounded=1;labelBackgroundColor=none;strokeColor=#E07A5F;fontColor=#393C56;" parent="WJG24V2qsXTOzEI06b3e-122" vertex="1">
          <mxGeometry x="30" width="150" height="30" as="geometry">
            <mxRectangle width="150" height="30" as="alternateBounds" />
          </mxGeometry>
        </mxCell>
        <mxCell id="WJG24V2qsXTOzEI06b3e-125" value="" style="shape=tableRow;horizontal=0;startSize=0;swimlaneHead=0;swimlaneBody=0;fillColor=none;collapsible=0;dropTarget=0;points=[[0,0.5],[1,0.5]];portConstraint=eastwest;top=0;left=0;right=0;bottom=0;rounded=1;labelBackgroundColor=none;strokeColor=#E07A5F;fontColor=#393C56;" parent="WJG24V2qsXTOzEI06b3e-118" vertex="1">
          <mxGeometry y="90" width="180" height="30" as="geometry" />
        </mxCell>
        <mxCell id="WJG24V2qsXTOzEI06b3e-126" value="" style="shape=partialRectangle;connectable=0;fillColor=none;top=0;left=0;bottom=0;right=0;fontStyle=0;overflow=hidden;whiteSpace=wrap;html=1;rounded=1;labelBackgroundColor=none;strokeColor=#E07A5F;fontColor=#393C56;" parent="WJG24V2qsXTOzEI06b3e-125" vertex="1">
          <mxGeometry width="30" height="30" as="geometry">
            <mxRectangle width="30" height="30" as="alternateBounds" />
          </mxGeometry>
        </mxCell>
        <mxCell id="WJG24V2qsXTOzEI06b3e-127" value="no_mesin : int" style="shape=partialRectangle;connectable=0;fillColor=none;top=0;left=0;bottom=0;right=0;align=left;spacingLeft=6;fontStyle=0;overflow=hidden;whiteSpace=wrap;html=1;rounded=1;labelBackgroundColor=none;strokeColor=#E07A5F;fontColor=#393C56;" parent="WJG24V2qsXTOzEI06b3e-125" vertex="1">
          <mxGeometry x="30" width="150" height="30" as="geometry">
            <mxRectangle width="150" height="30" as="alternateBounds" />
          </mxGeometry>
        </mxCell>
        <mxCell id="WJG24V2qsXTOzEI06b3e-128" value="" style="edgeStyle=orthogonalEdgeStyle;fontSize=12;html=1;endArrow=ERoneToMany;rounded=1;exitX=1;exitY=0.5;exitDx=0;exitDy=0;entryX=0;entryY=0.5;entryDx=0;entryDy=0;endFill=0;startArrow=ERone;startFill=0;labelBackgroundColor=none;strokeColor=#E07A5F;fontColor=default;" parent="1" target="WJG24V2qsXTOzEI06b3e-61" edge="1">
          <mxGeometry width="100" height="100" relative="1" as="geometry">
            <mxPoint x="910" y="37" as="sourcePoint" />
            <mxPoint x="960" y="-413" as="targetPoint" />
            <Array as="points">
              <mxPoint x="910" y="38" />
              <mxPoint x="940" y="38" />
              <mxPoint x="940" y="-495" />
            </Array>
          </mxGeometry>
        </mxCell>
        <mxCell id="WJG24V2qsXTOzEI06b3e-129" value="" style="edgeStyle=entityRelationEdgeStyle;fontSize=12;html=1;endArrow=ERoneToMany;rounded=1;exitX=1;exitY=0.5;exitDx=0;exitDy=0;entryX=0;entryY=0.5;entryDx=0;entryDy=0;startArrow=ERoneToMany;startFill=0;endFill=0;labelBackgroundColor=none;strokeColor=#E07A5F;fontColor=default;" parent="1" source="WJG24V2qsXTOzEI06b3e-2" target="WJG24V2qsXTOzEI06b3e-40" edge="1">
          <mxGeometry width="100" height="100" relative="1" as="geometry">
            <mxPoint x="840" y="-650" as="sourcePoint" />
            <mxPoint x="940" y="-750" as="targetPoint" />
          </mxGeometry>
        </mxCell>
        <mxCell id="WJG24V2qsXTOzEI06b3e-130" value="" style="edgeStyle=entityRelationEdgeStyle;fontSize=12;html=1;endArrow=ERmandOne;endFill=0;rounded=1;entryX=1;entryY=0.5;entryDx=0;entryDy=0;startArrow=ERoneToMany;startFill=0;exitX=0;exitY=0.5;exitDx=0;exitDy=0;labelBackgroundColor=none;strokeColor=#E07A5F;fontColor=default;" parent="1" source="WJG24V2qsXTOzEI06b3e-46" target="WJG24V2qsXTOzEI06b3e-119" edge="1">
          <mxGeometry width="100" height="100" relative="1" as="geometry">
            <mxPoint x="1140" y="-645" as="sourcePoint" />
            <mxPoint x="1360" y="-580" as="targetPoint" />
          </mxGeometry>
        </mxCell>
        <mxCell id="WJG24V2qsXTOzEI06b3e-131" value="" style="edgeStyle=orthogonalEdgeStyle;fontSize=12;html=1;endArrow=ERmandOne;startArrow=ERmandOne;rounded=1;entryX=0;entryY=0.5;entryDx=0;entryDy=0;exitX=1;exitY=0.5;exitDx=0;exitDy=0;labelBackgroundColor=none;strokeColor=#E07A5F;fontColor=default;" parent="1" source="WJG24V2qsXTOzEI06b3e-68" target="WJG24V2qsXTOzEI06b3e-21" edge="1">
          <mxGeometry width="100" height="100" relative="1" as="geometry">
            <mxPoint x="1230" y="-290" as="sourcePoint" />
            <mxPoint x="1330" y="-390" as="targetPoint" />
            <Array as="points">
              <mxPoint x="560" y="-328" />
              <mxPoint x="560" y="45" />
            </Array>
          </mxGeometry>
        </mxCell>
        <mxCell id="WJG24V2qsXTOzEI06b3e-132" value="" style="edgeStyle=orthogonalEdgeStyle;fontSize=12;html=1;endArrow=ERmandOne;startArrow=ERoneToMany;rounded=1;entryX=0;entryY=0.5;entryDx=0;entryDy=0;exitX=0;exitY=0.5;exitDx=0;exitDy=0;startFill=0;labelBackgroundColor=none;strokeColor=#E07A5F;fontColor=default;" parent="1" edge="1">
          <mxGeometry width="100" height="100" relative="1" as="geometry">
            <mxPoint x="330" y="-268" as="sourcePoint" />
            <mxPoint x="610" y="-925" as="targetPoint" />
            <Array as="points">
              <mxPoint x="310" y="-268" />
              <mxPoint x="310" y="-960" />
              <mxPoint x="580" y="-960" />
              <mxPoint x="580" y="-925" />
            </Array>
          </mxGeometry>
        </mxCell>
        <mxCell id="WJG24V2qsXTOzEI06b3e-133" value="" style="edgeStyle=entityRelationEdgeStyle;fontSize=12;html=1;endArrow=ERone;rounded=1;entryX=0;entryY=0.5;entryDx=0;entryDy=0;exitX=1;exitY=0.5;exitDx=0;exitDy=0;endFill=0;startArrow=ERzeroToMany;startFill=0;labelBackgroundColor=none;strokeColor=#E07A5F;fontColor=default;" parent="1" source="WJG24V2qsXTOzEI06b3e-109" target="WJG24V2qsXTOzEI06b3e-96" edge="1">
          <mxGeometry width="100" height="100" relative="1" as="geometry">
            <mxPoint x="790" y="-550" as="sourcePoint" />
            <mxPoint x="890" y="-650" as="targetPoint" />
          </mxGeometry>
        </mxCell>
        <mxCell id="WJG24V2qsXTOzEI06b3e-134" value="" style="edgeStyle=entityRelationEdgeStyle;fontSize=12;html=1;endArrow=ERoneToMany;endFill=0;rounded=1;entryX=0;entryY=0.5;entryDx=0;entryDy=0;exitX=1;exitY=0.5;exitDx=0;exitDy=0;startArrow=ERone;startFill=0;labelBackgroundColor=none;strokeColor=#E07A5F;fontColor=default;" parent="1" source="WJG24V2qsXTOzEI06b3e-93" target="WJG24V2qsXTOzEI06b3e-43" edge="1">
          <mxGeometry width="100" height="100" relative="1" as="geometry">
            <mxPoint x="810" y="-560" as="sourcePoint" />
            <mxPoint x="910" y="-660" as="targetPoint" />
          </mxGeometry>
        </mxCell>
        <mxCell id="WJG24V2qsXTOzEI06b3e-135" value="" style="edgeStyle=entityRelationEdgeStyle;fontSize=12;html=1;endArrow=ERmandOne;startArrow=ERoneToMany;rounded=1;exitX=1;exitY=0.5;exitDx=0;exitDy=0;entryX=0;entryY=0.5;entryDx=0;entryDy=0;startFill=0;labelBackgroundColor=none;strokeColor=#E07A5F;fontColor=default;" parent="1" source="WJG24V2qsXTOzEI06b3e-65" target="WJG24V2qsXTOzEI06b3e-99" edge="1">
          <mxGeometry width="100" height="100" relative="1" as="geometry">
            <mxPoint x="900" y="-350" as="sourcePoint" />
            <mxPoint x="1000" y="-450" as="targetPoint" />
          </mxGeometry>
        </mxCell>
        <mxCell id="ohTdjaxKAZBg8sDndXiF-1" value="QC Sheet" style="shape=table;startSize=30;container=1;collapsible=1;childLayout=tableLayout;fixedRows=1;rowLines=0;fontStyle=1;align=center;resizeLast=1;html=1;rounded=1;labelBackgroundColor=none;fillColor=#F2CC8F;strokeColor=#E07A5F;fontColor=#393C56;" parent="1" vertex="1">
          <mxGeometry x="30" y="-940" width="250" height="450" as="geometry">
            <mxRectangle x="770" y="264" width="90" height="30" as="alternateBounds" />
          </mxGeometry>
        </mxCell>
        <mxCell id="ohTdjaxKAZBg8sDndXiF-2" value="" style="shape=tableRow;horizontal=0;startSize=0;swimlaneHead=0;swimlaneBody=0;fillColor=none;collapsible=0;dropTarget=0;points=[[0,0.5],[1,0.5]];portConstraint=eastwest;top=0;left=0;right=0;bottom=1;rounded=1;labelBackgroundColor=none;strokeColor=#E07A5F;fontColor=#393C56;" parent="ohTdjaxKAZBg8sDndXiF-1" vertex="1">
          <mxGeometry y="30" width="250" height="30" as="geometry" />
        </mxCell>
        <mxCell id="ohTdjaxKAZBg8sDndXiF-3" value="PK" style="shape=partialRectangle;connectable=0;fillColor=none;top=0;left=0;bottom=0;right=0;fontStyle=1;overflow=hidden;whiteSpace=wrap;html=1;rounded=1;labelBackgroundColor=none;strokeColor=#E07A5F;fontColor=#393C56;" parent="ohTdjaxKAZBg8sDndXiF-2" vertex="1">
          <mxGeometry width="30" height="30" as="geometry">
            <mxRectangle width="30" height="30" as="alternateBounds" />
          </mxGeometry>
        </mxCell>
        <mxCell id="ohTdjaxKAZBg8sDndXiF-4" value="id_qc : int" style="shape=partialRectangle;connectable=0;fillColor=none;top=0;left=0;bottom=0;right=0;align=left;spacingLeft=6;fontStyle=5;overflow=hidden;whiteSpace=wrap;html=1;rounded=1;labelBackgroundColor=none;strokeColor=#E07A5F;fontColor=#393C56;" parent="ohTdjaxKAZBg8sDndXiF-2" vertex="1">
          <mxGeometry x="30" width="220" height="30" as="geometry">
            <mxRectangle width="220" height="30" as="alternateBounds" />
          </mxGeometry>
        </mxCell>
        <mxCell id="ohTdjaxKAZBg8sDndXiF-5" value="" style="shape=tableRow;horizontal=0;startSize=0;swimlaneHead=0;swimlaneBody=0;fillColor=none;collapsible=0;dropTarget=0;points=[[0,0.5],[1,0.5]];portConstraint=eastwest;top=0;left=0;right=0;bottom=0;rounded=1;labelBackgroundColor=none;strokeColor=#E07A5F;fontColor=#393C56;" parent="ohTdjaxKAZBg8sDndXiF-1" vertex="1">
          <mxGeometry y="60" width="250" height="30" as="geometry" />
        </mxCell>
        <mxCell id="ohTdjaxKAZBg8sDndXiF-6" value="" style="shape=partialRectangle;connectable=0;fillColor=none;top=0;left=0;bottom=0;right=0;editable=1;overflow=hidden;whiteSpace=wrap;html=1;rounded=1;labelBackgroundColor=none;strokeColor=#E07A5F;fontColor=#393C56;" parent="ohTdjaxKAZBg8sDndXiF-5" vertex="1">
          <mxGeometry width="30" height="30" as="geometry">
            <mxRectangle width="30" height="30" as="alternateBounds" />
          </mxGeometry>
        </mxCell>
        <mxCell id="ohTdjaxKAZBg8sDndXiF-7" value="no_pemesanan : string" style="shape=partialRectangle;connectable=0;fillColor=none;top=0;left=0;bottom=0;right=0;align=left;spacingLeft=6;overflow=hidden;whiteSpace=wrap;html=1;rounded=1;labelBackgroundColor=none;strokeColor=#E07A5F;fontColor=#393C56;" parent="ohTdjaxKAZBg8sDndXiF-5" vertex="1">
          <mxGeometry x="30" width="220" height="30" as="geometry">
            <mxRectangle width="220" height="30" as="alternateBounds" />
          </mxGeometry>
        </mxCell>
        <mxCell id="ohTdjaxKAZBg8sDndXiF-8" style="shape=tableRow;horizontal=0;startSize=0;swimlaneHead=0;swimlaneBody=0;fillColor=none;collapsible=0;dropTarget=0;points=[[0,0.5],[1,0.5]];portConstraint=eastwest;top=0;left=0;right=0;bottom=0;rounded=1;labelBackgroundColor=none;strokeColor=#E07A5F;fontColor=#393C56;" parent="ohTdjaxKAZBg8sDndXiF-1" vertex="1">
          <mxGeometry y="90" width="250" height="30" as="geometry" />
        </mxCell>
        <mxCell id="ohTdjaxKAZBg8sDndXiF-9" style="shape=partialRectangle;connectable=0;fillColor=none;top=0;left=0;bottom=0;right=0;editable=1;overflow=hidden;whiteSpace=wrap;html=1;rounded=1;labelBackgroundColor=none;strokeColor=#E07A5F;fontColor=#393C56;" parent="ohTdjaxKAZBg8sDndXiF-8" vertex="1">
          <mxGeometry width="30" height="30" as="geometry">
            <mxRectangle width="30" height="30" as="alternateBounds" />
          </mxGeometry>
        </mxCell>
        <mxCell id="ohTdjaxKAZBg8sDndXiF-10" value="nama_barang : string" style="shape=partialRectangle;connectable=0;fillColor=none;top=0;left=0;bottom=0;right=0;align=left;spacingLeft=6;overflow=hidden;whiteSpace=wrap;html=1;rounded=1;labelBackgroundColor=none;strokeColor=#E07A5F;fontColor=#393C56;" parent="ohTdjaxKAZBg8sDndXiF-8" vertex="1">
          <mxGeometry x="30" width="220" height="30" as="geometry">
            <mxRectangle width="220" height="30" as="alternateBounds" />
          </mxGeometry>
        </mxCell>
        <mxCell id="ohTdjaxKAZBg8sDndXiF-11" style="shape=tableRow;horizontal=0;startSize=0;swimlaneHead=0;swimlaneBody=0;fillColor=none;collapsible=0;dropTarget=0;points=[[0,0.5],[1,0.5]];portConstraint=eastwest;top=0;left=0;right=0;bottom=0;rounded=1;labelBackgroundColor=none;strokeColor=#E07A5F;fontColor=#393C56;" parent="ohTdjaxKAZBg8sDndXiF-1" vertex="1">
          <mxGeometry y="120" width="250" height="30" as="geometry" />
        </mxCell>
        <mxCell id="ohTdjaxKAZBg8sDndXiF-12" style="shape=partialRectangle;connectable=0;fillColor=none;top=0;left=0;bottom=0;right=0;editable=1;overflow=hidden;whiteSpace=wrap;html=1;rounded=1;labelBackgroundColor=none;strokeColor=#E07A5F;fontColor=#393C56;" parent="ohTdjaxKAZBg8sDndXiF-11" vertex="1">
          <mxGeometry width="30" height="30" as="geometry">
            <mxRectangle width="30" height="30" as="alternateBounds" />
          </mxGeometry>
        </mxCell>
        <mxCell id="ohTdjaxKAZBg8sDndXiF-13" value="no_gambar : int" style="shape=partialRectangle;connectable=0;fillColor=none;top=0;left=0;bottom=0;right=0;align=left;spacingLeft=6;overflow=hidden;whiteSpace=wrap;html=1;rounded=1;labelBackgroundColor=none;strokeColor=#E07A5F;fontColor=#393C56;" parent="ohTdjaxKAZBg8sDndXiF-11" vertex="1">
          <mxGeometry x="30" width="220" height="30" as="geometry">
            <mxRectangle width="220" height="30" as="alternateBounds" />
          </mxGeometry>
        </mxCell>
        <mxCell id="ohTdjaxKAZBg8sDndXiF-14" style="shape=tableRow;horizontal=0;startSize=0;swimlaneHead=0;swimlaneBody=0;fillColor=none;collapsible=0;dropTarget=0;points=[[0,0.5],[1,0.5]];portConstraint=eastwest;top=0;left=0;right=0;bottom=0;rounded=1;labelBackgroundColor=none;strokeColor=#E07A5F;fontColor=#393C56;" parent="ohTdjaxKAZBg8sDndXiF-1" vertex="1">
          <mxGeometry y="150" width="250" height="30" as="geometry" />
        </mxCell>
        <mxCell id="ohTdjaxKAZBg8sDndXiF-15" style="shape=partialRectangle;connectable=0;fillColor=none;top=0;left=0;bottom=0;right=0;editable=1;overflow=hidden;whiteSpace=wrap;html=1;rounded=1;labelBackgroundColor=none;strokeColor=#E07A5F;fontColor=#393C56;" parent="ohTdjaxKAZBg8sDndXiF-14" vertex="1">
          <mxGeometry width="30" height="30" as="geometry">
            <mxRectangle width="30" height="30" as="alternateBounds" />
          </mxGeometry>
        </mxCell>
        <mxCell id="ohTdjaxKAZBg8sDndXiF-16" value="jumlah : int" style="shape=partialRectangle;connectable=0;fillColor=none;top=0;left=0;bottom=0;right=0;align=left;spacingLeft=6;overflow=hidden;whiteSpace=wrap;html=1;rounded=1;labelBackgroundColor=none;strokeColor=#E07A5F;fontColor=#393C56;" parent="ohTdjaxKAZBg8sDndXiF-14" vertex="1">
          <mxGeometry x="30" width="220" height="30" as="geometry">
            <mxRectangle width="220" height="30" as="alternateBounds" />
          </mxGeometry>
        </mxCell>
        <mxCell id="ohTdjaxKAZBg8sDndXiF-17" style="shape=tableRow;horizontal=0;startSize=0;swimlaneHead=0;swimlaneBody=0;fillColor=none;collapsible=0;dropTarget=0;points=[[0,0.5],[1,0.5]];portConstraint=eastwest;top=0;left=0;right=0;bottom=0;rounded=1;labelBackgroundColor=none;strokeColor=#E07A5F;fontColor=#393C56;" parent="ohTdjaxKAZBg8sDndXiF-1" vertex="1">
          <mxGeometry y="180" width="250" height="30" as="geometry" />
        </mxCell>
        <mxCell id="ohTdjaxKAZBg8sDndXiF-18" style="shape=partialRectangle;connectable=0;fillColor=none;top=0;left=0;bottom=0;right=0;editable=1;overflow=hidden;whiteSpace=wrap;html=1;rounded=1;labelBackgroundColor=none;strokeColor=#E07A5F;fontColor=#393C56;" parent="ohTdjaxKAZBg8sDndXiF-17" vertex="1">
          <mxGeometry width="30" height="30" as="geometry">
            <mxRectangle width="30" height="30" as="alternateBounds" />
          </mxGeometry>
        </mxCell>
        <mxCell id="ohTdjaxKAZBg8sDndXiF-19" value="keputusan : string" style="shape=partialRectangle;connectable=0;fillColor=none;top=0;left=0;bottom=0;right=0;align=left;spacingLeft=6;overflow=hidden;whiteSpace=wrap;html=1;rounded=1;labelBackgroundColor=none;strokeColor=#E07A5F;fontColor=#393C56;" parent="ohTdjaxKAZBg8sDndXiF-17" vertex="1">
          <mxGeometry x="30" width="220" height="30" as="geometry">
            <mxRectangle width="220" height="30" as="alternateBounds" />
          </mxGeometry>
        </mxCell>
        <mxCell id="ohTdjaxKAZBg8sDndXiF-20" style="shape=tableRow;horizontal=0;startSize=0;swimlaneHead=0;swimlaneBody=0;fillColor=none;collapsible=0;dropTarget=0;points=[[0,0.5],[1,0.5]];portConstraint=eastwest;top=0;left=0;right=0;bottom=0;rounded=1;labelBackgroundColor=none;strokeColor=#E07A5F;fontColor=#393C56;" parent="ohTdjaxKAZBg8sDndXiF-1" vertex="1">
          <mxGeometry y="210" width="250" height="30" as="geometry" />
        </mxCell>
        <mxCell id="ohTdjaxKAZBg8sDndXiF-21" style="shape=partialRectangle;connectable=0;fillColor=none;top=0;left=0;bottom=0;right=0;editable=1;overflow=hidden;whiteSpace=wrap;html=1;rounded=1;labelBackgroundColor=none;strokeColor=#E07A5F;fontColor=#393C56;" parent="ohTdjaxKAZBg8sDndXiF-20" vertex="1">
          <mxGeometry width="30" height="30" as="geometry">
            <mxRectangle width="30" height="30" as="alternateBounds" />
          </mxGeometry>
        </mxCell>
        <mxCell id="ohTdjaxKAZBg8sDndXiF-22" value="diperiksa_tanggal : date" style="shape=partialRectangle;connectable=0;fillColor=none;top=0;left=0;bottom=0;right=0;align=left;spacingLeft=6;overflow=hidden;whiteSpace=wrap;html=1;rounded=1;labelBackgroundColor=none;strokeColor=#E07A5F;fontColor=#393C56;" parent="ohTdjaxKAZBg8sDndXiF-20" vertex="1">
          <mxGeometry x="30" width="220" height="30" as="geometry">
            <mxRectangle width="220" height="30" as="alternateBounds" />
          </mxGeometry>
        </mxCell>
        <mxCell id="ohTdjaxKAZBg8sDndXiF-23" style="shape=tableRow;horizontal=0;startSize=0;swimlaneHead=0;swimlaneBody=0;fillColor=none;collapsible=0;dropTarget=0;points=[[0,0.5],[1,0.5]];portConstraint=eastwest;top=0;left=0;right=0;bottom=0;rounded=1;labelBackgroundColor=none;strokeColor=#E07A5F;fontColor=#393C56;" parent="ohTdjaxKAZBg8sDndXiF-1" vertex="1">
          <mxGeometry y="240" width="250" height="30" as="geometry" />
        </mxCell>
        <mxCell id="ohTdjaxKAZBg8sDndXiF-24" style="shape=partialRectangle;connectable=0;fillColor=none;top=0;left=0;bottom=0;right=0;editable=1;overflow=hidden;whiteSpace=wrap;html=1;rounded=1;labelBackgroundColor=none;strokeColor=#E07A5F;fontColor=#393C56;" parent="ohTdjaxKAZBg8sDndXiF-23" vertex="1">
          <mxGeometry width="30" height="30" as="geometry">
            <mxRectangle width="30" height="30" as="alternateBounds" />
          </mxGeometry>
        </mxCell>
        <mxCell id="ohTdjaxKAZBg8sDndXiF-25" value="penanggung_jawab_pemeriksa : string" style="shape=partialRectangle;connectable=0;fillColor=none;top=0;left=0;bottom=0;right=0;align=left;spacingLeft=6;overflow=hidden;whiteSpace=wrap;html=1;rounded=1;labelBackgroundColor=none;strokeColor=#E07A5F;fontColor=#393C56;" parent="ohTdjaxKAZBg8sDndXiF-23" vertex="1">
          <mxGeometry x="30" width="220" height="30" as="geometry">
            <mxRectangle width="220" height="30" as="alternateBounds" />
          </mxGeometry>
        </mxCell>
        <mxCell id="ohTdjaxKAZBg8sDndXiF-26" style="shape=tableRow;horizontal=0;startSize=0;swimlaneHead=0;swimlaneBody=0;fillColor=none;collapsible=0;dropTarget=0;points=[[0,0.5],[1,0.5]];portConstraint=eastwest;top=0;left=0;right=0;bottom=0;rounded=1;labelBackgroundColor=none;strokeColor=#E07A5F;fontColor=#393C56;" parent="ohTdjaxKAZBg8sDndXiF-1" vertex="1">
          <mxGeometry y="270" width="250" height="30" as="geometry" />
        </mxCell>
        <mxCell id="ohTdjaxKAZBg8sDndXiF-27" style="shape=partialRectangle;connectable=0;fillColor=none;top=0;left=0;bottom=0;right=0;editable=1;overflow=hidden;whiteSpace=wrap;html=1;rounded=1;labelBackgroundColor=none;strokeColor=#E07A5F;fontColor=#393C56;" parent="ohTdjaxKAZBg8sDndXiF-26" vertex="1">
          <mxGeometry width="30" height="30" as="geometry">
            <mxRectangle width="30" height="30" as="alternateBounds" />
          </mxGeometry>
        </mxCell>
        <mxCell id="ohTdjaxKAZBg8sDndXiF-28" value="penanggung_jawab_qc : string" style="shape=partialRectangle;connectable=0;fillColor=none;top=0;left=0;bottom=0;right=0;align=left;spacingLeft=6;overflow=hidden;whiteSpace=wrap;html=1;rounded=1;labelBackgroundColor=none;strokeColor=#E07A5F;fontColor=#393C56;" parent="ohTdjaxKAZBg8sDndXiF-26" vertex="1">
          <mxGeometry x="30" width="220" height="30" as="geometry">
            <mxRectangle width="220" height="30" as="alternateBounds" />
          </mxGeometry>
        </mxCell>
        <mxCell id="ohTdjaxKAZBg8sDndXiF-29" style="shape=tableRow;horizontal=0;startSize=0;swimlaneHead=0;swimlaneBody=0;fillColor=none;collapsible=0;dropTarget=0;points=[[0,0.5],[1,0.5]];portConstraint=eastwest;top=0;left=0;right=0;bottom=0;rounded=1;labelBackgroundColor=none;strokeColor=#E07A5F;fontColor=#393C56;" parent="ohTdjaxKAZBg8sDndXiF-1" vertex="1">
          <mxGeometry y="300" width="250" height="30" as="geometry" />
        </mxCell>
        <mxCell id="ohTdjaxKAZBg8sDndXiF-30" value="" style="shape=partialRectangle;connectable=0;fillColor=none;top=0;left=0;bottom=0;right=0;editable=1;overflow=hidden;whiteSpace=wrap;html=1;rounded=1;labelBackgroundColor=none;strokeColor=#E07A5F;fontColor=#393C56;" parent="ohTdjaxKAZBg8sDndXiF-29" vertex="1">
          <mxGeometry width="30" height="30" as="geometry">
            <mxRectangle width="30" height="30" as="alternateBounds" />
          </mxGeometry>
        </mxCell>
        <mxCell id="ohTdjaxKAZBg8sDndXiF-31" value="item_no : int" style="shape=partialRectangle;connectable=0;fillColor=none;top=0;left=0;bottom=0;right=0;align=left;spacingLeft=6;overflow=hidden;whiteSpace=wrap;html=1;rounded=1;labelBackgroundColor=none;strokeColor=#E07A5F;fontColor=#393C56;" parent="ohTdjaxKAZBg8sDndXiF-29" vertex="1">
          <mxGeometry x="30" width="220" height="30" as="geometry">
            <mxRectangle width="220" height="30" as="alternateBounds" />
          </mxGeometry>
        </mxCell>
        <mxCell id="ohTdjaxKAZBg8sDndXiF-32" style="shape=tableRow;horizontal=0;startSize=0;swimlaneHead=0;swimlaneBody=0;fillColor=none;collapsible=0;dropTarget=0;points=[[0,0.5],[1,0.5]];portConstraint=eastwest;top=0;left=0;right=0;bottom=0;rounded=1;labelBackgroundColor=none;strokeColor=#E07A5F;fontColor=#393C56;" parent="ohTdjaxKAZBg8sDndXiF-1" vertex="1">
          <mxGeometry y="330" width="250" height="30" as="geometry" />
        </mxCell>
        <mxCell id="ohTdjaxKAZBg8sDndXiF-33" style="shape=partialRectangle;connectable=0;fillColor=none;top=0;left=0;bottom=0;right=0;editable=1;overflow=hidden;whiteSpace=wrap;html=1;rounded=1;labelBackgroundColor=none;strokeColor=#E07A5F;fontColor=#393C56;" parent="ohTdjaxKAZBg8sDndXiF-32" vertex="1">
          <mxGeometry width="30" height="30" as="geometry">
            <mxRectangle width="30" height="30" as="alternateBounds" />
          </mxGeometry>
        </mxCell>
        <mxCell id="ohTdjaxKAZBg8sDndXiF-34" value="standar_inspeksi : string" style="shape=partialRectangle;connectable=0;fillColor=none;top=0;left=0;bottom=0;right=0;align=left;spacingLeft=6;overflow=hidden;whiteSpace=wrap;html=1;rounded=1;labelBackgroundColor=none;strokeColor=#E07A5F;fontColor=#393C56;" parent="ohTdjaxKAZBg8sDndXiF-32" vertex="1">
          <mxGeometry x="30" width="220" height="30" as="geometry">
            <mxRectangle width="220" height="30" as="alternateBounds" />
          </mxGeometry>
        </mxCell>
        <mxCell id="ohTdjaxKAZBg8sDndXiF-35" style="shape=tableRow;horizontal=0;startSize=0;swimlaneHead=0;swimlaneBody=0;fillColor=none;collapsible=0;dropTarget=0;points=[[0,0.5],[1,0.5]];portConstraint=eastwest;top=0;left=0;right=0;bottom=0;rounded=1;labelBackgroundColor=none;strokeColor=#E07A5F;fontColor=#393C56;" parent="ohTdjaxKAZBg8sDndXiF-1" vertex="1">
          <mxGeometry y="360" width="250" height="30" as="geometry" />
        </mxCell>
        <mxCell id="ohTdjaxKAZBg8sDndXiF-36" style="shape=partialRectangle;connectable=0;fillColor=none;top=0;left=0;bottom=0;right=0;editable=1;overflow=hidden;whiteSpace=wrap;html=1;rounded=1;labelBackgroundColor=none;strokeColor=#E07A5F;fontColor=#393C56;" parent="ohTdjaxKAZBg8sDndXiF-35" vertex="1">
          <mxGeometry width="30" height="30" as="geometry">
            <mxRectangle width="30" height="30" as="alternateBounds" />
          </mxGeometry>
        </mxCell>
        <mxCell id="ohTdjaxKAZBg8sDndXiF-37" value="toleransi_khusus : string" style="shape=partialRectangle;connectable=0;fillColor=none;top=0;left=0;bottom=0;right=0;align=left;spacingLeft=6;overflow=hidden;whiteSpace=wrap;html=1;rounded=1;labelBackgroundColor=none;strokeColor=#E07A5F;fontColor=#393C56;" parent="ohTdjaxKAZBg8sDndXiF-35" vertex="1">
          <mxGeometry x="30" width="220" height="30" as="geometry">
            <mxRectangle width="220" height="30" as="alternateBounds" />
          </mxGeometry>
        </mxCell>
        <mxCell id="ohTdjaxKAZBg8sDndXiF-38" style="shape=tableRow;horizontal=0;startSize=0;swimlaneHead=0;swimlaneBody=0;fillColor=none;collapsible=0;dropTarget=0;points=[[0,0.5],[1,0.5]];portConstraint=eastwest;top=0;left=0;right=0;bottom=0;rounded=1;labelBackgroundColor=none;strokeColor=#E07A5F;fontColor=#393C56;" parent="ohTdjaxKAZBg8sDndXiF-1" vertex="1">
          <mxGeometry y="390" width="250" height="30" as="geometry" />
        </mxCell>
        <mxCell id="ohTdjaxKAZBg8sDndXiF-39" style="shape=partialRectangle;connectable=0;fillColor=none;top=0;left=0;bottom=0;right=0;editable=1;overflow=hidden;whiteSpace=wrap;html=1;rounded=1;labelBackgroundColor=none;strokeColor=#E07A5F;fontColor=#393C56;" parent="ohTdjaxKAZBg8sDndXiF-38" vertex="1">
          <mxGeometry width="30" height="30" as="geometry">
            <mxRectangle width="30" height="30" as="alternateBounds" />
          </mxGeometry>
        </mxCell>
        <mxCell id="ohTdjaxKAZBg8sDndXiF-40" value="hasil_inspeksi : string" style="shape=partialRectangle;connectable=0;fillColor=none;top=0;left=0;bottom=0;right=0;align=left;spacingLeft=6;overflow=hidden;whiteSpace=wrap;html=1;rounded=1;labelBackgroundColor=none;strokeColor=#E07A5F;fontColor=#393C56;" parent="ohTdjaxKAZBg8sDndXiF-38" vertex="1">
          <mxGeometry x="30" width="220" height="30" as="geometry">
            <mxRectangle width="220" height="30" as="alternateBounds" />
          </mxGeometry>
        </mxCell>
        <mxCell id="ohTdjaxKAZBg8sDndXiF-41" style="shape=tableRow;horizontal=0;startSize=0;swimlaneHead=0;swimlaneBody=0;fillColor=none;collapsible=0;dropTarget=0;points=[[0,0.5],[1,0.5]];portConstraint=eastwest;top=0;left=0;right=0;bottom=0;rounded=1;labelBackgroundColor=none;strokeColor=#E07A5F;fontColor=#393C56;" parent="ohTdjaxKAZBg8sDndXiF-1" vertex="1">
          <mxGeometry y="420" width="250" height="30" as="geometry" />
        </mxCell>
        <mxCell id="ohTdjaxKAZBg8sDndXiF-42" style="shape=partialRectangle;connectable=0;fillColor=none;top=0;left=0;bottom=0;right=0;editable=1;overflow=hidden;whiteSpace=wrap;html=1;rounded=1;labelBackgroundColor=none;strokeColor=#E07A5F;fontColor=#393C56;" parent="ohTdjaxKAZBg8sDndXiF-41" vertex="1">
          <mxGeometry width="30" height="30" as="geometry">
            <mxRectangle width="30" height="30" as="alternateBounds" />
          </mxGeometry>
        </mxCell>
        <mxCell id="ohTdjaxKAZBg8sDndXiF-43" value="keterangan : string" style="shape=partialRectangle;connectable=0;fillColor=none;top=0;left=0;bottom=0;right=0;align=left;spacingLeft=6;overflow=hidden;whiteSpace=wrap;html=1;rounded=1;labelBackgroundColor=none;strokeColor=#E07A5F;fontColor=#393C56;" parent="ohTdjaxKAZBg8sDndXiF-41" vertex="1">
          <mxGeometry x="30" width="220" height="30" as="geometry">
            <mxRectangle width="220" height="30" as="alternateBounds" />
          </mxGeometry>
        </mxCell>
        <mxCell id="ohTdjaxKAZBg8sDndXiF-56" value="Delivery Orde (DO)" style="shape=table;startSize=30;container=1;collapsible=1;childLayout=tableLayout;fixedRows=1;rowLines=0;fontStyle=1;align=center;resizeLast=1;html=1;rounded=1;labelBackgroundColor=none;fillColor=#F2CC8F;strokeColor=#E07A5F;fontColor=#393C56;" parent="1" vertex="1">
          <mxGeometry x="30" y="-280" width="250" height="450" as="geometry">
            <mxRectangle x="770" y="264" width="90" height="30" as="alternateBounds" />
          </mxGeometry>
        </mxCell>
        <mxCell id="ohTdjaxKAZBg8sDndXiF-57" value="" style="shape=tableRow;horizontal=0;startSize=0;swimlaneHead=0;swimlaneBody=0;fillColor=none;collapsible=0;dropTarget=0;points=[[0,0.5],[1,0.5]];portConstraint=eastwest;top=0;left=0;right=0;bottom=1;rounded=1;labelBackgroundColor=none;strokeColor=#E07A5F;fontColor=#393C56;" parent="ohTdjaxKAZBg8sDndXiF-56" vertex="1">
          <mxGeometry y="30" width="250" height="30" as="geometry" />
        </mxCell>
        <mxCell id="ohTdjaxKAZBg8sDndXiF-58" value="PK" style="shape=partialRectangle;connectable=0;fillColor=none;top=0;left=0;bottom=0;right=0;fontStyle=1;overflow=hidden;whiteSpace=wrap;html=1;rounded=1;labelBackgroundColor=none;strokeColor=#E07A5F;fontColor=#393C56;" parent="ohTdjaxKAZBg8sDndXiF-57" vertex="1">
          <mxGeometry width="30" height="30" as="geometry">
            <mxRectangle width="30" height="30" as="alternateBounds" />
          </mxGeometry>
        </mxCell>
        <mxCell id="ohTdjaxKAZBg8sDndXiF-59" value="id_do : int" style="shape=partialRectangle;connectable=0;fillColor=none;top=0;left=0;bottom=0;right=0;align=left;spacingLeft=6;fontStyle=5;overflow=hidden;whiteSpace=wrap;html=1;rounded=1;labelBackgroundColor=none;strokeColor=#E07A5F;fontColor=#393C56;" parent="ohTdjaxKAZBg8sDndXiF-57" vertex="1">
          <mxGeometry x="30" width="220" height="30" as="geometry">
            <mxRectangle width="220" height="30" as="alternateBounds" />
          </mxGeometry>
        </mxCell>
        <mxCell id="ohTdjaxKAZBg8sDndXiF-60" value="" style="shape=tableRow;horizontal=0;startSize=0;swimlaneHead=0;swimlaneBody=0;fillColor=none;collapsible=0;dropTarget=0;points=[[0,0.5],[1,0.5]];portConstraint=eastwest;top=0;left=0;right=0;bottom=0;rounded=1;labelBackgroundColor=none;strokeColor=#E07A5F;fontColor=#393C56;" parent="ohTdjaxKAZBg8sDndXiF-56" vertex="1">
          <mxGeometry y="60" width="250" height="30" as="geometry" />
        </mxCell>
        <mxCell id="ohTdjaxKAZBg8sDndXiF-61" value="" style="shape=partialRectangle;connectable=0;fillColor=none;top=0;left=0;bottom=0;right=0;editable=1;overflow=hidden;whiteSpace=wrap;html=1;rounded=1;labelBackgroundColor=none;strokeColor=#E07A5F;fontColor=#393C56;" parent="ohTdjaxKAZBg8sDndXiF-60" vertex="1">
          <mxGeometry width="30" height="30" as="geometry">
            <mxRectangle width="30" height="30" as="alternateBounds" />
          </mxGeometry>
        </mxCell>
        <mxCell id="ohTdjaxKAZBg8sDndXiF-62" value="pemesanan : string" style="shape=partialRectangle;connectable=0;fillColor=none;top=0;left=0;bottom=0;right=0;align=left;spacingLeft=6;overflow=hidden;whiteSpace=wrap;html=1;rounded=1;labelBackgroundColor=none;strokeColor=#E07A5F;fontColor=#393C56;" parent="ohTdjaxKAZBg8sDndXiF-60" vertex="1">
          <mxGeometry x="30" width="220" height="30" as="geometry">
            <mxRectangle width="220" height="30" as="alternateBounds" />
          </mxGeometry>
        </mxCell>
        <mxCell id="ohTdjaxKAZBg8sDndXiF-63" style="shape=tableRow;horizontal=0;startSize=0;swimlaneHead=0;swimlaneBody=0;fillColor=none;collapsible=0;dropTarget=0;points=[[0,0.5],[1,0.5]];portConstraint=eastwest;top=0;left=0;right=0;bottom=0;rounded=1;labelBackgroundColor=none;strokeColor=#E07A5F;fontColor=#393C56;" parent="ohTdjaxKAZBg8sDndXiF-56" vertex="1">
          <mxGeometry y="90" width="250" height="30" as="geometry" />
        </mxCell>
        <mxCell id="ohTdjaxKAZBg8sDndXiF-64" style="shape=partialRectangle;connectable=0;fillColor=none;top=0;left=0;bottom=0;right=0;editable=1;overflow=hidden;whiteSpace=wrap;html=1;rounded=1;labelBackgroundColor=none;strokeColor=#E07A5F;fontColor=#393C56;" parent="ohTdjaxKAZBg8sDndXiF-63" vertex="1">
          <mxGeometry width="30" height="30" as="geometry">
            <mxRectangle width="30" height="30" as="alternateBounds" />
          </mxGeometry>
        </mxCell>
        <mxCell id="ohTdjaxKAZBg8sDndXiF-65" value="no_order : string" style="shape=partialRectangle;connectable=0;fillColor=none;top=0;left=0;bottom=0;right=0;align=left;spacingLeft=6;overflow=hidden;whiteSpace=wrap;html=1;rounded=1;labelBackgroundColor=none;strokeColor=#E07A5F;fontColor=#393C56;" parent="ohTdjaxKAZBg8sDndXiF-63" vertex="1">
          <mxGeometry x="30" width="220" height="30" as="geometry">
            <mxRectangle width="220" height="30" as="alternateBounds" />
          </mxGeometry>
        </mxCell>
        <mxCell id="ohTdjaxKAZBg8sDndXiF-66" style="shape=tableRow;horizontal=0;startSize=0;swimlaneHead=0;swimlaneBody=0;fillColor=none;collapsible=0;dropTarget=0;points=[[0,0.5],[1,0.5]];portConstraint=eastwest;top=0;left=0;right=0;bottom=0;rounded=1;labelBackgroundColor=none;strokeColor=#E07A5F;fontColor=#393C56;" parent="ohTdjaxKAZBg8sDndXiF-56" vertex="1">
          <mxGeometry y="120" width="250" height="30" as="geometry" />
        </mxCell>
        <mxCell id="ohTdjaxKAZBg8sDndXiF-67" style="shape=partialRectangle;connectable=0;fillColor=none;top=0;left=0;bottom=0;right=0;editable=1;overflow=hidden;whiteSpace=wrap;html=1;rounded=1;labelBackgroundColor=none;strokeColor=#E07A5F;fontColor=#393C56;" parent="ohTdjaxKAZBg8sDndXiF-66" vertex="1">
          <mxGeometry width="30" height="30" as="geometry">
            <mxRectangle width="30" height="30" as="alternateBounds" />
          </mxGeometry>
        </mxCell>
        <mxCell id="ohTdjaxKAZBg8sDndXiF-68" value="tanggal_kirim : date" style="shape=partialRectangle;connectable=0;fillColor=none;top=0;left=0;bottom=0;right=0;align=left;spacingLeft=6;overflow=hidden;whiteSpace=wrap;html=1;rounded=1;labelBackgroundColor=none;strokeColor=#E07A5F;fontColor=#393C56;" parent="ohTdjaxKAZBg8sDndXiF-66" vertex="1">
          <mxGeometry x="30" width="220" height="30" as="geometry">
            <mxRectangle width="220" height="30" as="alternateBounds" />
          </mxGeometry>
        </mxCell>
        <mxCell id="ohTdjaxKAZBg8sDndXiF-69" style="shape=tableRow;horizontal=0;startSize=0;swimlaneHead=0;swimlaneBody=0;fillColor=none;collapsible=0;dropTarget=0;points=[[0,0.5],[1,0.5]];portConstraint=eastwest;top=0;left=0;right=0;bottom=0;rounded=1;labelBackgroundColor=none;strokeColor=#E07A5F;fontColor=#393C56;" parent="ohTdjaxKAZBg8sDndXiF-56" vertex="1">
          <mxGeometry y="150" width="250" height="30" as="geometry" />
        </mxCell>
        <mxCell id="ohTdjaxKAZBg8sDndXiF-70" style="shape=partialRectangle;connectable=0;fillColor=none;top=0;left=0;bottom=0;right=0;editable=1;overflow=hidden;whiteSpace=wrap;html=1;rounded=1;labelBackgroundColor=none;strokeColor=#E07A5F;fontColor=#393C56;" parent="ohTdjaxKAZBg8sDndXiF-69" vertex="1">
          <mxGeometry width="30" height="30" as="geometry">
            <mxRectangle width="30" height="30" as="alternateBounds" />
          </mxGeometry>
        </mxCell>
        <mxCell id="ohTdjaxKAZBg8sDndXiF-71" value="no : int" style="shape=partialRectangle;connectable=0;fillColor=none;top=0;left=0;bottom=0;right=0;align=left;spacingLeft=6;overflow=hidden;whiteSpace=wrap;html=1;rounded=1;labelBackgroundColor=none;strokeColor=#E07A5F;fontColor=#393C56;" parent="ohTdjaxKAZBg8sDndXiF-69" vertex="1">
          <mxGeometry x="30" width="220" height="30" as="geometry">
            <mxRectangle width="220" height="30" as="alternateBounds" />
          </mxGeometry>
        </mxCell>
        <mxCell id="ohTdjaxKAZBg8sDndXiF-72" style="shape=tableRow;horizontal=0;startSize=0;swimlaneHead=0;swimlaneBody=0;fillColor=none;collapsible=0;dropTarget=0;points=[[0,0.5],[1,0.5]];portConstraint=eastwest;top=0;left=0;right=0;bottom=0;rounded=1;labelBackgroundColor=none;strokeColor=#E07A5F;fontColor=#393C56;" parent="ohTdjaxKAZBg8sDndXiF-56" vertex="1">
          <mxGeometry y="180" width="250" height="30" as="geometry" />
        </mxCell>
        <mxCell id="ohTdjaxKAZBg8sDndXiF-73" style="shape=partialRectangle;connectable=0;fillColor=none;top=0;left=0;bottom=0;right=0;editable=1;overflow=hidden;whiteSpace=wrap;html=1;rounded=1;labelBackgroundColor=none;strokeColor=#E07A5F;fontColor=#393C56;" parent="ohTdjaxKAZBg8sDndXiF-72" vertex="1">
          <mxGeometry width="30" height="30" as="geometry">
            <mxRectangle width="30" height="30" as="alternateBounds" />
          </mxGeometry>
        </mxCell>
        <mxCell id="ohTdjaxKAZBg8sDndXiF-74" value="nama_barang : string" style="shape=partialRectangle;connectable=0;fillColor=none;top=0;left=0;bottom=0;right=0;align=left;spacingLeft=6;overflow=hidden;whiteSpace=wrap;html=1;rounded=1;labelBackgroundColor=none;strokeColor=#E07A5F;fontColor=#393C56;" parent="ohTdjaxKAZBg8sDndXiF-72" vertex="1">
          <mxGeometry x="30" width="220" height="30" as="geometry">
            <mxRectangle width="220" height="30" as="alternateBounds" />
          </mxGeometry>
        </mxCell>
        <mxCell id="ohTdjaxKAZBg8sDndXiF-75" style="shape=tableRow;horizontal=0;startSize=0;swimlaneHead=0;swimlaneBody=0;fillColor=none;collapsible=0;dropTarget=0;points=[[0,0.5],[1,0.5]];portConstraint=eastwest;top=0;left=0;right=0;bottom=0;rounded=1;labelBackgroundColor=none;strokeColor=#E07A5F;fontColor=#393C56;" parent="ohTdjaxKAZBg8sDndXiF-56" vertex="1">
          <mxGeometry y="210" width="250" height="30" as="geometry" />
        </mxCell>
        <mxCell id="ohTdjaxKAZBg8sDndXiF-76" style="shape=partialRectangle;connectable=0;fillColor=none;top=0;left=0;bottom=0;right=0;editable=1;overflow=hidden;whiteSpace=wrap;html=1;rounded=1;labelBackgroundColor=none;strokeColor=#E07A5F;fontColor=#393C56;" parent="ohTdjaxKAZBg8sDndXiF-75" vertex="1">
          <mxGeometry width="30" height="30" as="geometry">
            <mxRectangle width="30" height="30" as="alternateBounds" />
          </mxGeometry>
        </mxCell>
        <mxCell id="ohTdjaxKAZBg8sDndXiF-77" value="bahan : string" style="shape=partialRectangle;connectable=0;fillColor=none;top=0;left=0;bottom=0;right=0;align=left;spacingLeft=6;overflow=hidden;whiteSpace=wrap;html=1;rounded=1;labelBackgroundColor=none;strokeColor=#E07A5F;fontColor=#393C56;" parent="ohTdjaxKAZBg8sDndXiF-75" vertex="1">
          <mxGeometry x="30" width="220" height="30" as="geometry">
            <mxRectangle width="220" height="30" as="alternateBounds" />
          </mxGeometry>
        </mxCell>
        <mxCell id="ohTdjaxKAZBg8sDndXiF-78" style="shape=tableRow;horizontal=0;startSize=0;swimlaneHead=0;swimlaneBody=0;fillColor=none;collapsible=0;dropTarget=0;points=[[0,0.5],[1,0.5]];portConstraint=eastwest;top=0;left=0;right=0;bottom=0;rounded=1;labelBackgroundColor=none;strokeColor=#E07A5F;fontColor=#393C56;" parent="ohTdjaxKAZBg8sDndXiF-56" vertex="1">
          <mxGeometry y="240" width="250" height="30" as="geometry" />
        </mxCell>
        <mxCell id="ohTdjaxKAZBg8sDndXiF-79" style="shape=partialRectangle;connectable=0;fillColor=none;top=0;left=0;bottom=0;right=0;editable=1;overflow=hidden;whiteSpace=wrap;html=1;rounded=1;labelBackgroundColor=none;strokeColor=#E07A5F;fontColor=#393C56;" parent="ohTdjaxKAZBg8sDndXiF-78" vertex="1">
          <mxGeometry width="30" height="30" as="geometry">
            <mxRectangle width="30" height="30" as="alternateBounds" />
          </mxGeometry>
        </mxCell>
        <mxCell id="ohTdjaxKAZBg8sDndXiF-80" value="jumlah : int" style="shape=partialRectangle;connectable=0;fillColor=none;top=0;left=0;bottom=0;right=0;align=left;spacingLeft=6;overflow=hidden;whiteSpace=wrap;html=1;rounded=1;labelBackgroundColor=none;strokeColor=#E07A5F;fontColor=#393C56;" parent="ohTdjaxKAZBg8sDndXiF-78" vertex="1">
          <mxGeometry x="30" width="220" height="30" as="geometry">
            <mxRectangle width="220" height="30" as="alternateBounds" />
          </mxGeometry>
        </mxCell>
        <mxCell id="ohTdjaxKAZBg8sDndXiF-81" style="shape=tableRow;horizontal=0;startSize=0;swimlaneHead=0;swimlaneBody=0;fillColor=none;collapsible=0;dropTarget=0;points=[[0,0.5],[1,0.5]];portConstraint=eastwest;top=0;left=0;right=0;bottom=0;rounded=1;labelBackgroundColor=none;strokeColor=#E07A5F;fontColor=#393C56;" parent="ohTdjaxKAZBg8sDndXiF-56" vertex="1">
          <mxGeometry y="270" width="250" height="30" as="geometry" />
        </mxCell>
        <mxCell id="ohTdjaxKAZBg8sDndXiF-82" style="shape=partialRectangle;connectable=0;fillColor=none;top=0;left=0;bottom=0;right=0;editable=1;overflow=hidden;whiteSpace=wrap;html=1;rounded=1;labelBackgroundColor=none;strokeColor=#E07A5F;fontColor=#393C56;" parent="ohTdjaxKAZBg8sDndXiF-81" vertex="1">
          <mxGeometry width="30" height="30" as="geometry">
            <mxRectangle width="30" height="30" as="alternateBounds" />
          </mxGeometry>
        </mxCell>
        <mxCell id="ohTdjaxKAZBg8sDndXiF-83" value="total_kirim : int" style="shape=partialRectangle;connectable=0;fillColor=none;top=0;left=0;bottom=0;right=0;align=left;spacingLeft=6;overflow=hidden;whiteSpace=wrap;html=1;rounded=1;labelBackgroundColor=none;strokeColor=#E07A5F;fontColor=#393C56;" parent="ohTdjaxKAZBg8sDndXiF-81" vertex="1">
          <mxGeometry x="30" width="220" height="30" as="geometry">
            <mxRectangle width="220" height="30" as="alternateBounds" />
          </mxGeometry>
        </mxCell>
        <mxCell id="ohTdjaxKAZBg8sDndXiF-84" style="shape=tableRow;horizontal=0;startSize=0;swimlaneHead=0;swimlaneBody=0;fillColor=none;collapsible=0;dropTarget=0;points=[[0,0.5],[1,0.5]];portConstraint=eastwest;top=0;left=0;right=0;bottom=0;rounded=1;labelBackgroundColor=none;strokeColor=#E07A5F;fontColor=#393C56;" parent="ohTdjaxKAZBg8sDndXiF-56" vertex="1">
          <mxGeometry y="300" width="250" height="30" as="geometry" />
        </mxCell>
        <mxCell id="ohTdjaxKAZBg8sDndXiF-85" value="" style="shape=partialRectangle;connectable=0;fillColor=none;top=0;left=0;bottom=0;right=0;editable=1;overflow=hidden;whiteSpace=wrap;html=1;rounded=1;labelBackgroundColor=none;strokeColor=#E07A5F;fontColor=#393C56;" parent="ohTdjaxKAZBg8sDndXiF-84" vertex="1">
          <mxGeometry width="30" height="30" as="geometry">
            <mxRectangle width="30" height="30" as="alternateBounds" />
          </mxGeometry>
        </mxCell>
        <mxCell id="ohTdjaxKAZBg8sDndXiF-86" value="sisa_kirim : int" style="shape=partialRectangle;connectable=0;fillColor=none;top=0;left=0;bottom=0;right=0;align=left;spacingLeft=6;overflow=hidden;whiteSpace=wrap;html=1;rounded=1;labelBackgroundColor=none;strokeColor=#E07A5F;fontColor=#393C56;" parent="ohTdjaxKAZBg8sDndXiF-84" vertex="1">
          <mxGeometry x="30" width="220" height="30" as="geometry">
            <mxRectangle width="220" height="30" as="alternateBounds" />
          </mxGeometry>
        </mxCell>
        <mxCell id="ohTdjaxKAZBg8sDndXiF-87" style="shape=tableRow;horizontal=0;startSize=0;swimlaneHead=0;swimlaneBody=0;fillColor=none;collapsible=0;dropTarget=0;points=[[0,0.5],[1,0.5]];portConstraint=eastwest;top=0;left=0;right=0;bottom=0;rounded=1;labelBackgroundColor=none;strokeColor=#E07A5F;fontColor=#393C56;" parent="ohTdjaxKAZBg8sDndXiF-56" vertex="1">
          <mxGeometry y="330" width="250" height="30" as="geometry" />
        </mxCell>
        <mxCell id="ohTdjaxKAZBg8sDndXiF-88" style="shape=partialRectangle;connectable=0;fillColor=none;top=0;left=0;bottom=0;right=0;editable=1;overflow=hidden;whiteSpace=wrap;html=1;rounded=1;labelBackgroundColor=none;strokeColor=#E07A5F;fontColor=#393C56;" parent="ohTdjaxKAZBg8sDndXiF-87" vertex="1">
          <mxGeometry width="30" height="30" as="geometry">
            <mxRectangle width="30" height="30" as="alternateBounds" />
          </mxGeometry>
        </mxCell>
        <mxCell id="ohTdjaxKAZBg8sDndXiF-89" value="keterangan : string" style="shape=partialRectangle;connectable=0;fillColor=none;top=0;left=0;bottom=0;right=0;align=left;spacingLeft=6;overflow=hidden;whiteSpace=wrap;html=1;rounded=1;labelBackgroundColor=none;strokeColor=#E07A5F;fontColor=#393C56;" parent="ohTdjaxKAZBg8sDndXiF-87" vertex="1">
          <mxGeometry x="30" width="220" height="30" as="geometry">
            <mxRectangle width="220" height="30" as="alternateBounds" />
          </mxGeometry>
        </mxCell>
        <mxCell id="ohTdjaxKAZBg8sDndXiF-90" style="shape=tableRow;horizontal=0;startSize=0;swimlaneHead=0;swimlaneBody=0;fillColor=none;collapsible=0;dropTarget=0;points=[[0,0.5],[1,0.5]];portConstraint=eastwest;top=0;left=0;right=0;bottom=0;rounded=1;labelBackgroundColor=none;strokeColor=#E07A5F;fontColor=#393C56;" parent="ohTdjaxKAZBg8sDndXiF-56" vertex="1">
          <mxGeometry y="360" width="250" height="30" as="geometry" />
        </mxCell>
        <mxCell id="ohTdjaxKAZBg8sDndXiF-91" style="shape=partialRectangle;connectable=0;fillColor=none;top=0;left=0;bottom=0;right=0;editable=1;overflow=hidden;whiteSpace=wrap;html=1;rounded=1;labelBackgroundColor=none;strokeColor=#E07A5F;fontColor=#393C56;" parent="ohTdjaxKAZBg8sDndXiF-90" vertex="1">
          <mxGeometry width="30" height="30" as="geometry">
            <mxRectangle width="30" height="30" as="alternateBounds" />
          </mxGeometry>
        </mxCell>
        <mxCell id="ohTdjaxKAZBg8sDndXiF-92" value="catatan : string" style="shape=partialRectangle;connectable=0;fillColor=none;top=0;left=0;bottom=0;right=0;align=left;spacingLeft=6;overflow=hidden;whiteSpace=wrap;html=1;rounded=1;labelBackgroundColor=none;strokeColor=#E07A5F;fontColor=#393C56;" parent="ohTdjaxKAZBg8sDndXiF-90" vertex="1">
          <mxGeometry x="30" width="220" height="30" as="geometry">
            <mxRectangle width="220" height="30" as="alternateBounds" />
          </mxGeometry>
        </mxCell>
        <mxCell id="ohTdjaxKAZBg8sDndXiF-93" style="shape=tableRow;horizontal=0;startSize=0;swimlaneHead=0;swimlaneBody=0;fillColor=none;collapsible=0;dropTarget=0;points=[[0,0.5],[1,0.5]];portConstraint=eastwest;top=0;left=0;right=0;bottom=0;rounded=1;labelBackgroundColor=none;strokeColor=#E07A5F;fontColor=#393C56;" parent="ohTdjaxKAZBg8sDndXiF-56" vertex="1">
          <mxGeometry y="390" width="250" height="30" as="geometry" />
        </mxCell>
        <mxCell id="ohTdjaxKAZBg8sDndXiF-94" style="shape=partialRectangle;connectable=0;fillColor=none;top=0;left=0;bottom=0;right=0;editable=1;overflow=hidden;whiteSpace=wrap;html=1;rounded=1;labelBackgroundColor=none;strokeColor=#E07A5F;fontColor=#393C56;" parent="ohTdjaxKAZBg8sDndXiF-93" vertex="1">
          <mxGeometry width="30" height="30" as="geometry">
            <mxRectangle width="30" height="30" as="alternateBounds" />
          </mxGeometry>
        </mxCell>
        <mxCell id="ohTdjaxKAZBg8sDndXiF-95" value="ttd_ppc_mekanik : string" style="shape=partialRectangle;connectable=0;fillColor=none;top=0;left=0;bottom=0;right=0;align=left;spacingLeft=6;overflow=hidden;whiteSpace=wrap;html=1;rounded=1;labelBackgroundColor=none;strokeColor=#E07A5F;fontColor=#393C56;" parent="ohTdjaxKAZBg8sDndXiF-93" vertex="1">
          <mxGeometry x="30" width="220" height="30" as="geometry">
            <mxRectangle width="220" height="30" as="alternateBounds" />
          </mxGeometry>
        </mxCell>
        <mxCell id="ohTdjaxKAZBg8sDndXiF-96" style="shape=tableRow;horizontal=0;startSize=0;swimlaneHead=0;swimlaneBody=0;fillColor=none;collapsible=0;dropTarget=0;points=[[0,0.5],[1,0.5]];portConstraint=eastwest;top=0;left=0;right=0;bottom=0;rounded=1;labelBackgroundColor=none;strokeColor=#E07A5F;fontColor=#393C56;" parent="ohTdjaxKAZBg8sDndXiF-56" vertex="1">
          <mxGeometry y="420" width="250" height="30" as="geometry" />
        </mxCell>
        <mxCell id="ohTdjaxKAZBg8sDndXiF-97" style="shape=partialRectangle;connectable=0;fillColor=none;top=0;left=0;bottom=0;right=0;editable=1;overflow=hidden;whiteSpace=wrap;html=1;rounded=1;labelBackgroundColor=none;strokeColor=#E07A5F;fontColor=#393C56;" parent="ohTdjaxKAZBg8sDndXiF-96" vertex="1">
          <mxGeometry width="30" height="30" as="geometry">
            <mxRectangle width="30" height="30" as="alternateBounds" />
          </mxGeometry>
        </mxCell>
        <mxCell id="ohTdjaxKAZBg8sDndXiF-98" value="ttd_upt_logistik : string" style="shape=partialRectangle;connectable=0;fillColor=none;top=0;left=0;bottom=0;right=0;align=left;spacingLeft=6;overflow=hidden;whiteSpace=wrap;html=1;rounded=1;labelBackgroundColor=none;strokeColor=#E07A5F;fontColor=#393C56;" parent="ohTdjaxKAZBg8sDndXiF-96" vertex="1">
          <mxGeometry x="30" width="220" height="30" as="geometry">
            <mxRectangle width="220" height="30" as="alternateBounds" />
          </mxGeometry>
        </mxCell>
      </root>
    </mxGraphModel>
  </diagram>
  <diagram id="ccGZ633-jiIfUSgIGNto" name="FLOWCHART PROSES">
    <mxGraphModel grid="1" page="1" gridSize="10" guides="1" tooltips="1" connect="1" arrows="1" fold="1" pageScale="1" pageWidth="827" pageHeight="1169" math="0" shadow="0">
      <root>
        <mxCell id="0" />
        <mxCell id="1" parent="0" />
        <mxCell id="eRzssNvRWsME0_NvgnSl-7" value="Catatan:&lt;br style=&quot;font-size: 14px;&quot;&gt;* Diharapkan ada record tanggal (kalo bisa dalam bentuk file) proses order ke logistik sebagai bukti sudah diorder" style="text;html=1;align=left;verticalAlign=middle;resizable=0;points=[];autosize=1;strokeColor=none;fillColor=none;fontSize=14;fontStyle=1" vertex="1" parent="1">
          <mxGeometry x="22.75" y="1080" width="780" height="50" as="geometry" />
        </mxCell>
        <mxCell id="eRzssNvRWsME0_NvgnSl-8" value="FLOWCHART PROSES PPC ME" style="text;html=1;align=left;verticalAlign=middle;resizable=0;points=[];autosize=1;strokeColor=none;fillColor=none;fontSize=16;fontStyle=5" vertex="1" parent="1">
          <mxGeometry x="24" y="40" width="260" height="30" as="geometry" />
        </mxCell>
        <mxCell id="xSHqOAVqEewawyYrG77G-2" value="" style="group" connectable="0" vertex="1" parent="1">
          <mxGeometry y="20" width="750.5" height="870" as="geometry" />
        </mxCell>
        <mxCell id="qKWYnPx0niEGLVi9tC3o-2" value="Start" style="strokeWidth=2;html=1;shape=mxgraph.flowchart.start_1;whiteSpace=wrap;" vertex="1" parent="xSHqOAVqEewawyYrG77G-2">
          <mxGeometry x="52.5" width="80" height="50" as="geometry" />
        </mxCell>
        <mxCell id="qKWYnPx0niEGLVi9tC3o-3" value="SPK dari BPU" style="rounded=1;whiteSpace=wrap;html=1;absoluteArcSize=1;arcSize=14;strokeWidth=2;" vertex="1" parent="xSHqOAVqEewawyYrG77G-2">
          <mxGeometry x="42.5" y="100" width="100" height="40" as="geometry" />
        </mxCell>
        <mxCell id="qKWYnPx0niEGLVi9tC3o-14" style="edgeStyle=orthogonalEdgeStyle;rounded=0;orthogonalLoop=1;jettySize=auto;html=1;exitX=0.5;exitY=1;exitDx=0;exitDy=0;exitPerimeter=0;entryX=0.5;entryY=0;entryDx=0;entryDy=0;" edge="1" parent="xSHqOAVqEewawyYrG77G-2" source="qKWYnPx0niEGLVi9tC3o-2" target="qKWYnPx0niEGLVi9tC3o-3">
          <mxGeometry relative="1" as="geometry" />
        </mxCell>
        <mxCell id="qKWYnPx0niEGLVi9tC3o-4" value="PPC input SPK ke Web" style="html=1;strokeWidth=2;shape=manualInput;whiteSpace=wrap;rounded=1;size=26;arcSize=11;verticalAlign=bottom;" vertex="1" parent="xSHqOAVqEewawyYrG77G-2">
          <mxGeometry x="37.5" y="180" width="110" height="60" as="geometry" />
        </mxCell>
        <mxCell id="qKWYnPx0niEGLVi9tC3o-16" style="edgeStyle=orthogonalEdgeStyle;rounded=0;orthogonalLoop=1;jettySize=auto;html=1;exitX=0.5;exitY=1;exitDx=0;exitDy=0;entryX=0.498;entryY=0.229;entryDx=0;entryDy=0;entryPerimeter=0;" edge="1" parent="xSHqOAVqEewawyYrG77G-2" source="qKWYnPx0niEGLVi9tC3o-3" target="qKWYnPx0niEGLVi9tC3o-4">
          <mxGeometry relative="1" as="geometry" />
        </mxCell>
        <mxCell id="qKWYnPx0niEGLVi9tC3o-5" value="Perencanaan Proses Pengerjaan (PPC)" style="rounded=1;whiteSpace=wrap;html=1;absoluteArcSize=1;arcSize=14;strokeWidth=2;" vertex="1" parent="xSHqOAVqEewawyYrG77G-2">
          <mxGeometry x="30" y="280" width="125" height="60" as="geometry" />
        </mxCell>
        <mxCell id="qKWYnPx0niEGLVi9tC3o-17" style="edgeStyle=orthogonalEdgeStyle;rounded=0;orthogonalLoop=1;jettySize=auto;html=1;exitX=0.5;exitY=1;exitDx=0;exitDy=0;entryX=0.5;entryY=0;entryDx=0;entryDy=0;" edge="1" parent="xSHqOAVqEewawyYrG77G-2" source="qKWYnPx0niEGLVi9tC3o-4" target="qKWYnPx0niEGLVi9tC3o-5">
          <mxGeometry relative="1" as="geometry" />
        </mxCell>
        <mxCell id="qKWYnPx0niEGLVi9tC3o-7" value="&lt;div style=&quot;text-align: center;&quot;&gt;&lt;span style=&quot;background-color: initial;&quot;&gt;Input Proses Pengerjaan:&lt;/span&gt;&lt;/div&gt;&lt;ol&gt;&lt;li&gt;Pembagian komponen&lt;/li&gt;&lt;li&gt;Proses permesinan&lt;/li&gt;&lt;li&gt;Urutan kerja&lt;/li&gt;&lt;li&gt;Waktu pengerjaan&lt;/li&gt;&lt;li&gt;dll.&lt;/li&gt;&lt;/ol&gt;" style="html=1;strokeWidth=2;shape=manualInput;whiteSpace=wrap;rounded=1;size=26;arcSize=11;verticalAlign=bottom;align=left;" vertex="1" parent="xSHqOAVqEewawyYrG77G-2">
          <mxGeometry y="390" width="185" height="140" as="geometry" />
        </mxCell>
        <mxCell id="qKWYnPx0niEGLVi9tC3o-8" value="Material/komponen tersedia?" style="strokeWidth=2;html=1;shape=mxgraph.flowchart.decision;whiteSpace=wrap;" vertex="1" parent="xSHqOAVqEewawyYrG77G-2">
          <mxGeometry x="17.5" y="590" width="150" height="80" as="geometry" />
        </mxCell>
        <mxCell id="qKWYnPx0niEGLVi9tC3o-10" value="Order Komponen" style="rounded=1;whiteSpace=wrap;html=1;absoluteArcSize=1;arcSize=14;strokeWidth=2;" vertex="1" parent="xSHqOAVqEewawyYrG77G-2">
          <mxGeometry x="212.5" y="605" width="110" height="50" as="geometry" />
        </mxCell>
        <mxCell id="qKWYnPx0niEGLVi9tC3o-22" style="edgeStyle=orthogonalEdgeStyle;rounded=0;orthogonalLoop=1;jettySize=auto;html=1;exitX=1;exitY=0.5;exitDx=0;exitDy=0;exitPerimeter=0;entryX=0;entryY=0.5;entryDx=0;entryDy=0;" edge="1" parent="xSHqOAVqEewawyYrG77G-2" source="qKWYnPx0niEGLVi9tC3o-8" target="qKWYnPx0niEGLVi9tC3o-10">
          <mxGeometry relative="1" as="geometry" />
        </mxCell>
        <mxCell id="qKWYnPx0niEGLVi9tC3o-19" style="edgeStyle=orthogonalEdgeStyle;rounded=0;orthogonalLoop=1;jettySize=auto;html=1;entryX=0.504;entryY=0.092;entryDx=0;entryDy=0;entryPerimeter=0;" edge="1" parent="xSHqOAVqEewawyYrG77G-2" source="qKWYnPx0niEGLVi9tC3o-5" target="qKWYnPx0niEGLVi9tC3o-7">
          <mxGeometry relative="1" as="geometry" />
        </mxCell>
        <mxCell id="qKWYnPx0niEGLVi9tC3o-20" style="edgeStyle=orthogonalEdgeStyle;rounded=0;orthogonalLoop=1;jettySize=auto;html=1;exitX=0.5;exitY=1;exitDx=0;exitDy=0;entryX=0.5;entryY=0;entryDx=0;entryDy=0;entryPerimeter=0;" edge="1" parent="xSHqOAVqEewawyYrG77G-2" source="qKWYnPx0niEGLVi9tC3o-7" target="qKWYnPx0niEGLVi9tC3o-8">
          <mxGeometry relative="1" as="geometry" />
        </mxCell>
        <mxCell id="qKWYnPx0niEGLVi9tC3o-23" style="edgeStyle=orthogonalEdgeStyle;rounded=0;orthogonalLoop=1;jettySize=auto;html=1;exitX=0.5;exitY=1;exitDx=0;exitDy=0;" edge="1" parent="xSHqOAVqEewawyYrG77G-2" source="qKWYnPx0niEGLVi9tC3o-10" target="qKWYnPx0niEGLVi9tC3o-34">
          <mxGeometry relative="1" as="geometry">
            <mxPoint x="266.91499999999996" y="701.9000000000001" as="targetPoint" />
          </mxGeometry>
        </mxCell>
        <mxCell id="qKWYnPx0niEGLVi9tC3o-27" value="A" style="verticalLabelPosition=middle;verticalAlign=middle;html=1;shape=mxgraph.flowchart.on-page_reference;labelPosition=center;align=center;" vertex="1" parent="xSHqOAVqEewawyYrG77G-2">
          <mxGeometry x="70" y="770" width="45" height="40" as="geometry" />
        </mxCell>
        <mxCell id="qKWYnPx0niEGLVi9tC3o-21" style="edgeStyle=orthogonalEdgeStyle;rounded=0;orthogonalLoop=1;jettySize=auto;html=1;exitX=0.5;exitY=1;exitDx=0;exitDy=0;exitPerimeter=0;entryX=0.5;entryY=0;entryDx=0;entryDy=0;entryPerimeter=0;" edge="1" parent="xSHqOAVqEewawyYrG77G-2" source="qKWYnPx0niEGLVi9tC3o-8" target="qKWYnPx0niEGLVi9tC3o-27">
          <mxGeometry relative="1" as="geometry">
            <mxPoint x="92.5" y="780" as="targetPoint" />
          </mxGeometry>
        </mxCell>
        <mxCell id="qKWYnPx0niEGLVi9tC3o-28" value="A" style="verticalLabelPosition=middle;verticalAlign=middle;html=1;shape=mxgraph.flowchart.on-page_reference;labelPosition=center;align=center;" vertex="1" parent="xSHqOAVqEewawyYrG77G-2">
          <mxGeometry x="440" width="45" height="40" as="geometry" />
        </mxCell>
        <mxCell id="qKWYnPx0niEGLVi9tC3o-29" value="Proses Pengerjaan" style="rounded=1;whiteSpace=wrap;html=1;absoluteArcSize=1;arcSize=14;strokeWidth=2;" vertex="1" parent="xSHqOAVqEewawyYrG77G-2">
          <mxGeometry x="412.5" y="197.5" width="100" height="50" as="geometry" />
        </mxCell>
        <mxCell id="qKWYnPx0niEGLVi9tC3o-31" value="Isi form logistik&lt;b&gt;*&lt;/b&gt;&lt;br&gt;&amp;nbsp; &amp;nbsp;" style="html=1;strokeWidth=2;shape=manualInput;whiteSpace=wrap;rounded=1;size=26;arcSize=11;verticalAlign=bottom;align=left;" vertex="1" parent="xSHqOAVqEewawyYrG77G-2">
          <mxGeometry x="618.75" y="70" width="97.5" height="70" as="geometry" />
        </mxCell>
        <mxCell id="qKWYnPx0niEGLVi9tC3o-32" style="edgeStyle=orthogonalEdgeStyle;rounded=0;orthogonalLoop=1;jettySize=auto;html=1;entryX=1;entryY=0.5;entryDx=0;entryDy=0;" edge="1" parent="xSHqOAVqEewawyYrG77G-2" source="qKWYnPx0niEGLVi9tC3o-33" target="qKWYnPx0niEGLVi9tC3o-29">
          <mxGeometry relative="1" as="geometry" />
        </mxCell>
        <mxCell id="qKWYnPx0niEGLVi9tC3o-33" value="&amp;nbsp; &amp;nbsp; &amp;nbsp;Material/komponen tersedia" style="shape=parallelogram;html=1;strokeWidth=2;perimeter=parallelogramPerimeter;whiteSpace=wrap;rounded=1;arcSize=12;size=0.23;align=center;" vertex="1" parent="xSHqOAVqEewawyYrG77G-2">
          <mxGeometry x="584.5" y="192.5" width="166" height="60" as="geometry" />
        </mxCell>
        <mxCell id="qKWYnPx0niEGLVi9tC3o-30" style="edgeStyle=orthogonalEdgeStyle;rounded=0;orthogonalLoop=1;jettySize=auto;html=1;exitX=0.5;exitY=1;exitDx=0;exitDy=0;entryX=0.5;entryY=0;entryDx=0;entryDy=0;" edge="1" parent="xSHqOAVqEewawyYrG77G-2" source="qKWYnPx0niEGLVi9tC3o-31" target="qKWYnPx0niEGLVi9tC3o-33">
          <mxGeometry relative="1" as="geometry">
            <mxPoint x="667.5" y="167.5" as="sourcePoint" />
          </mxGeometry>
        </mxCell>
        <mxCell id="qKWYnPx0niEGLVi9tC3o-34" value="B" style="verticalLabelPosition=middle;verticalAlign=middle;html=1;shape=mxgraph.flowchart.on-page_reference;labelPosition=center;align=center;" vertex="1" parent="xSHqOAVqEewawyYrG77G-2">
          <mxGeometry x="245" y="730" width="45" height="40" as="geometry" />
        </mxCell>
        <mxCell id="qKWYnPx0niEGLVi9tC3o-35" value="B" style="verticalLabelPosition=middle;verticalAlign=middle;html=1;shape=mxgraph.flowchart.on-page_reference;labelPosition=center;align=center;" vertex="1" parent="xSHqOAVqEewawyYrG77G-2">
          <mxGeometry x="645" y="5" width="45" height="40" as="geometry" />
        </mxCell>
        <mxCell id="qKWYnPx0niEGLVi9tC3o-36" style="edgeStyle=orthogonalEdgeStyle;rounded=0;orthogonalLoop=1;jettySize=auto;html=1;exitX=0.5;exitY=1;exitDx=0;exitDy=0;exitPerimeter=0;entryX=0.5;entryY=0;entryDx=0;entryDy=0;" edge="1" parent="xSHqOAVqEewawyYrG77G-2" source="qKWYnPx0niEGLVi9tC3o-28" target="qKWYnPx0niEGLVi9tC3o-29">
          <mxGeometry relative="1" as="geometry" />
        </mxCell>
        <mxCell id="qKWYnPx0niEGLVi9tC3o-37" style="edgeStyle=orthogonalEdgeStyle;rounded=0;orthogonalLoop=1;jettySize=auto;html=1;exitX=0.5;exitY=1;exitDx=0;exitDy=0;exitPerimeter=0;entryX=0.494;entryY=0.144;entryDx=0;entryDy=0;entryPerimeter=0;" edge="1" parent="xSHqOAVqEewawyYrG77G-2" source="qKWYnPx0niEGLVi9tC3o-35" target="qKWYnPx0niEGLVi9tC3o-31">
          <mxGeometry relative="1" as="geometry" />
        </mxCell>
        <mxCell id="qKWYnPx0niEGLVi9tC3o-38" value="Tidak" style="text;html=1;align=center;verticalAlign=middle;resizable=0;points=[];autosize=1;strokeColor=none;fillColor=none;" vertex="1" parent="xSHqOAVqEewawyYrG77G-2">
          <mxGeometry x="155" y="600" width="50" height="30" as="geometry" />
        </mxCell>
        <mxCell id="qKWYnPx0niEGLVi9tC3o-39" value="Ya" style="text;html=1;align=center;verticalAlign=middle;resizable=0;points=[];autosize=1;strokeColor=none;fillColor=none;" vertex="1" parent="xSHqOAVqEewawyYrG77G-2">
          <mxGeometry x="102.5" y="690" width="40" height="30" as="geometry" />
        </mxCell>
        <mxCell id="qKWYnPx0niEGLVi9tC3o-40" value="QC Part Hasil Proses Permesinan" style="rounded=1;whiteSpace=wrap;html=1;absoluteArcSize=1;arcSize=14;strokeWidth=2;" vertex="1" parent="xSHqOAVqEewawyYrG77G-2">
          <mxGeometry x="407.5" y="300" width="110" height="50" as="geometry" />
        </mxCell>
        <mxCell id="qKWYnPx0niEGLVi9tC3o-41" style="edgeStyle=orthogonalEdgeStyle;rounded=0;orthogonalLoop=1;jettySize=auto;html=1;exitX=0.5;exitY=1;exitDx=0;exitDy=0;entryX=0.5;entryY=0;entryDx=0;entryDy=0;" edge="1" parent="xSHqOAVqEewawyYrG77G-2" source="qKWYnPx0niEGLVi9tC3o-29" target="qKWYnPx0niEGLVi9tC3o-40">
          <mxGeometry relative="1" as="geometry" />
        </mxCell>
        <mxCell id="CacXFeX4Ca-_Dq9bA5-I-2" style="edgeStyle=orthogonalEdgeStyle;rounded=0;orthogonalLoop=1;jettySize=auto;html=1;entryX=0;entryY=0.5;entryDx=0;entryDy=0;exitX=0;exitY=0.5;exitDx=0;exitDy=0;exitPerimeter=0;" edge="1" parent="xSHqOAVqEewawyYrG77G-2" source="CacXFeX4Ca-_Dq9bA5-I-1" target="qKWYnPx0niEGLVi9tC3o-29">
          <mxGeometry relative="1" as="geometry">
            <Array as="points">
              <mxPoint x="352.5" y="430" />
              <mxPoint x="352.5" y="223" />
            </Array>
          </mxGeometry>
        </mxCell>
        <mxCell id="CacXFeX4Ca-_Dq9bA5-I-1" value="Part Sesuai Standar?" style="strokeWidth=2;html=1;shape=mxgraph.flowchart.decision;whiteSpace=wrap;" vertex="1" parent="xSHqOAVqEewawyYrG77G-2">
          <mxGeometry x="412.5" y="390" width="100" height="80" as="geometry" />
        </mxCell>
        <mxCell id="CacXFeX4Ca-_Dq9bA5-I-3" style="edgeStyle=orthogonalEdgeStyle;rounded=0;orthogonalLoop=1;jettySize=auto;html=1;exitX=0.5;exitY=1;exitDx=0;exitDy=0;entryX=0.5;entryY=0;entryDx=0;entryDy=0;entryPerimeter=0;" edge="1" parent="xSHqOAVqEewawyYrG77G-2" source="qKWYnPx0niEGLVi9tC3o-40" target="CacXFeX4Ca-_Dq9bA5-I-1">
          <mxGeometry relative="1" as="geometry" />
        </mxCell>
        <mxCell id="CacXFeX4Ca-_Dq9bA5-I-4" value="Assembly Part" style="rounded=1;whiteSpace=wrap;html=1;absoluteArcSize=1;arcSize=14;strokeWidth=2;" vertex="1" parent="xSHqOAVqEewawyYrG77G-2">
          <mxGeometry x="412.5" y="520" width="100" height="55" as="geometry" />
        </mxCell>
        <mxCell id="CacXFeX4Ca-_Dq9bA5-I-5" style="edgeStyle=orthogonalEdgeStyle;rounded=0;orthogonalLoop=1;jettySize=auto;html=1;exitX=0.5;exitY=1;exitDx=0;exitDy=0;exitPerimeter=0;entryX=0.5;entryY=0;entryDx=0;entryDy=0;" edge="1" parent="xSHqOAVqEewawyYrG77G-2" source="CacXFeX4Ca-_Dq9bA5-I-1" target="CacXFeX4Ca-_Dq9bA5-I-4">
          <mxGeometry relative="1" as="geometry" />
        </mxCell>
        <mxCell id="CacXFeX4Ca-_Dq9bA5-I-6" value="QC Komponen Hasil Assembly" style="rounded=1;whiteSpace=wrap;html=1;absoluteArcSize=1;arcSize=14;strokeWidth=2;" vertex="1" parent="xSHqOAVqEewawyYrG77G-2">
          <mxGeometry x="407.5" y="620" width="110" height="50" as="geometry" />
        </mxCell>
        <mxCell id="CacXFeX4Ca-_Dq9bA5-I-7" style="edgeStyle=orthogonalEdgeStyle;rounded=0;orthogonalLoop=1;jettySize=auto;html=1;exitX=0.5;exitY=1;exitDx=0;exitDy=0;entryX=0.5;entryY=0;entryDx=0;entryDy=0;" edge="1" parent="xSHqOAVqEewawyYrG77G-2" source="CacXFeX4Ca-_Dq9bA5-I-4" target="CacXFeX4Ca-_Dq9bA5-I-6">
          <mxGeometry relative="1" as="geometry" />
        </mxCell>
        <mxCell id="CacXFeX4Ca-_Dq9bA5-I-9" style="edgeStyle=orthogonalEdgeStyle;rounded=0;orthogonalLoop=1;jettySize=auto;html=1;exitX=1;exitY=0.5;exitDx=0;exitDy=0;exitPerimeter=0;entryX=1;entryY=0.5;entryDx=0;entryDy=0;" edge="1" parent="xSHqOAVqEewawyYrG77G-2" source="CacXFeX4Ca-_Dq9bA5-I-8" target="CacXFeX4Ca-_Dq9bA5-I-4">
          <mxGeometry relative="1" as="geometry">
            <Array as="points">
              <mxPoint x="592.5" y="735" />
              <mxPoint x="592.5" y="548" />
            </Array>
          </mxGeometry>
        </mxCell>
        <mxCell id="CacXFeX4Ca-_Dq9bA5-I-8" value="Komponen Sesuai Standar?" style="strokeWidth=2;html=1;shape=mxgraph.flowchart.decision;whiteSpace=wrap;" vertex="1" parent="xSHqOAVqEewawyYrG77G-2">
          <mxGeometry x="412.5" y="700" width="100" height="70" as="geometry" />
        </mxCell>
        <mxCell id="CacXFeX4Ca-_Dq9bA5-I-10" value="Selesai" style="strokeWidth=2;html=1;shape=mxgraph.flowchart.start_1;whiteSpace=wrap;" vertex="1" parent="xSHqOAVqEewawyYrG77G-2">
          <mxGeometry x="412.5" y="810" width="100" height="60" as="geometry" />
        </mxCell>
        <mxCell id="CacXFeX4Ca-_Dq9bA5-I-11" style="edgeStyle=orthogonalEdgeStyle;rounded=0;orthogonalLoop=1;jettySize=auto;html=1;exitX=0.5;exitY=1;exitDx=0;exitDy=0;entryX=0.5;entryY=0;entryDx=0;entryDy=0;entryPerimeter=0;" edge="1" parent="xSHqOAVqEewawyYrG77G-2" source="CacXFeX4Ca-_Dq9bA5-I-6" target="CacXFeX4Ca-_Dq9bA5-I-8">
          <mxGeometry relative="1" as="geometry" />
        </mxCell>
        <mxCell id="CacXFeX4Ca-_Dq9bA5-I-12" style="edgeStyle=orthogonalEdgeStyle;rounded=0;orthogonalLoop=1;jettySize=auto;html=1;exitX=0.5;exitY=1;exitDx=0;exitDy=0;exitPerimeter=0;entryX=0.5;entryY=0;entryDx=0;entryDy=0;entryPerimeter=0;" edge="1" parent="xSHqOAVqEewawyYrG77G-2" source="CacXFeX4Ca-_Dq9bA5-I-8" target="CacXFeX4Ca-_Dq9bA5-I-10">
          <mxGeometry relative="1" as="geometry" />
        </mxCell>
        <mxCell id="eRzssNvRWsME0_NvgnSl-1" value="Tidak" style="text;html=1;align=center;verticalAlign=middle;resizable=0;points=[];autosize=1;strokeColor=none;fillColor=none;" vertex="1" parent="xSHqOAVqEewawyYrG77G-2">
          <mxGeometry x="522.5" y="700" width="50" height="30" as="geometry" />
        </mxCell>
        <mxCell id="eRzssNvRWsME0_NvgnSl-3" value="Tidak" style="text;html=1;align=center;verticalAlign=middle;resizable=0;points=[];autosize=1;strokeColor=none;fillColor=none;" vertex="1" parent="xSHqOAVqEewawyYrG77G-2">
          <mxGeometry x="362.5" y="400" width="50" height="30" as="geometry" />
        </mxCell>
        <mxCell id="eRzssNvRWsME0_NvgnSl-5" value="Ya" style="text;html=1;align=center;verticalAlign=middle;resizable=0;points=[];autosize=1;strokeColor=none;fillColor=none;" vertex="1" parent="xSHqOAVqEewawyYrG77G-2">
          <mxGeometry x="452.5" y="775" width="40" height="30" as="geometry" />
        </mxCell>
        <mxCell id="eRzssNvRWsME0_NvgnSl-6" value="Ya" style="text;html=1;align=center;verticalAlign=middle;resizable=0;points=[];autosize=1;strokeColor=none;fillColor=none;" vertex="1" parent="xSHqOAVqEewawyYrG77G-2">
          <mxGeometry x="462.5" y="480" width="40" height="30" as="geometry" />
        </mxCell>
      </root>
    </mxGraphModel>
  </diagram>
</mxfile>
